<?xml version="1.0" encoding="UTF-8"?>
<!DOCTYPE svg PUBLIC "-//W3C//DTD SVG 1.1//EN" "http://www.w3.org/Graphics/SVG/1.1/DTD/svg11.dtd">
<!-- Creator: CorelDRAW X7 -->
<svg xmlns="http://www.w3.org/2000/svg" xml:space="preserve" width="297mm" height="210mm" version="1.1" style="shape-rendering:geometricPrecision; text-rendering:geometricPrecision; image-rendering:optimizeQuality; fill-rule:evenodd; clip-rule:evenodd"
viewBox="0 0 29700 21000"
 xmlns:xlink="http://www.w3.org/1999/xlink">
 <defs>
  <style type="text/css">
   <![CDATA[
    .str0 {stroke:#D26B54;stroke-width:26.46}
    .fil0 {fill:#D26B54;fill-rule:nonzero}
   ]]>
  </style>
 </defs>
 <g id="РЁР_x00b0_СЂ_x0020_1">
  <metadata id="CorelCorpID_0Corel-Layer"/>
  <g id="_2391325742832">
   <g>
    <g>
     <g>
      <g>
       <path class="fil0 str0" d="M15986 7419c-7,0 -13,-3 -16,-9 -3,-7 1,-15 10,-18 20,-7 40,-27 60,-47 32,-31 68,-66 112,-51 22,8 34,24 34,44 0,27 -25,58 -52,67 -9,3 -19,-1 -22,-8 -3,-7 1,-15 10,-18 13,-5 31,-25 31,-42 0,-8 -4,-14 -13,-17 -21,-7 -43,12 -75,43 -22,23 -45,46 -73,55 -2,1 -4,1 -6,1z"/>
       <path class="fil0 str0" d="M16023 7421c-32,0 -63,-4 -92,-12 -9,-2 -13,-10 -10,-17 3,-8 12,-12 21,-9 55,15 122,14 181,-4 9,-3 18,1 21,8 3,7 -1,15 -10,18 -35,11 -73,16 -111,16z"/>
       <path class="fil0 str0" d="M16105 7502c-55,0 -97,-47 -119,-72 -5,-5 -9,-11 -12,-13 -6,-5 -7,-14 0,-19 6,-6 17,-6 23,-1 5,4 9,9 16,17 20,22 53,60 92,60 1,0 1,0 2,0 17,0 28,-5 33,-14 7,-15 -3,-39 -24,-59 -6,-5 -5,-14 1,-19 7,-6 18,-5 24,1 30,27 42,63 29,88 -5,11 -21,30 -62,31 -1,0 -2,0 -3,0z"/>
      </g>
      <path class="fil0 str0" d="M16078 7230c-9,0 -19,-2 -28,-6 -16,-8 -24,-24 -24,-44 0,-25 15,-49 36,-59 7,-4 16,-2 20,4 4,6 2,14 -6,17 -11,5 -21,22 -21,39 0,5 1,17 11,22 17,9 45,-5 58,-15 4,-3 10,-7 19,-8 3,-1 12,-2 22,1 5,2 12,4 15,9 2,4 3,11 -1,14 -3,3 -8,4 -10,4 -6,0 -8,-3 -14,-3 -3,-1 -8,0 -14,3 -3,2 -7,4 -13,7 -15,7 -31,15 -50,15z"/>
      <path class="fil0 str0" d="M15638 6831c-5,0 -9,-2 -12,-6 -6,-6 -4,-15 3,-20 26,-19 125,-40 164,-43 59,-5 111,2 152,20 5,-3 12,-16 13,-33 0,-8 7,-15 16,-14 9,0 16,6 15,14 0,26 -12,50 -29,59 -8,5 -18,5 -26,1 -37,-16 -84,-23 -138,-18 -40,3 -130,24 -148,37 -3,2 -6,3 -10,3z"/>
      <path class="fil0 str0" d="M15638 6824c-5,0 -10,-2 -13,-6 -5,-7 -3,-16 4,-20 44,-27 106,-58 205,-57 88,1 137,-6 137,-6 9,-2 17,4 18,12 1,8 -4,15 -13,16 -2,1 -51,8 -142,7 -90,0 -145,26 -187,52 -3,2 -6,2 -9,2z"/>
      <path class="fil0 str0" d="M15688 6981c-8,0 -15,-5 -16,-13 -1,-8 5,-15 14,-16 63,-8 100,-25 132,-41 17,-8 33,-15 50,-20 32,-10 57,0 73,10 18,11 30,27 34,38 3,8 -2,16 -10,18 -8,3 -17,-1 -20,-9 -3,-9 -29,-41 -67,-30 -15,5 -29,11 -45,19 -33,16 -74,35 -143,44 -1,0 -2,0 -2,0z"/>
      <path class="fil0 str0" d="M15892 7033c-10,0 -26,-3 -40,-24 -19,-28 -27,-78 -11,-103 5,-7 14,-10 22,-5 7,4 10,13 5,20 -8,12 -4,50 10,72 5,7 10,12 14,11 3,0 9,0 15,-13 11,-25 3,-68 -8,-78 -6,-6 -5,-16 2,-21 6,-5 16,-5 22,1 20,21 27,77 13,109 -8,19 -23,30 -42,31 -1,0 -1,0 -2,0z"/>
      <g>
       <path class="fil0 str0" d="M15901 6923c21,3 23,64 7,65 -18,1 -29,-63 -7,-65z"/>
       <path class="fil0 str0" d="M15907 6995c-15,0 -24,-21 -26,-42 -2,-22 5,-36 19,-37l1 0 1 0c20,3 26,31 25,50 -1,18 -8,29 -19,29 0,0 0,0 -1,0zm-6 -64l0 0c-1,1 -3,4 -3,9 -3,16 4,36 9,40 3,-4 5,-22 1,-37 -2,-7 -5,-11 -7,-12z"/>
      </g>
      <path class="fil0 str0" d="M15931 6921c-6,0 -11,-3 -13,-8 -5,-12 -14,-20 -28,-24 -24,-7 -58,1 -95,23 -6,3 -14,2 -18,-4 -4,-5 -2,-13 4,-16 43,-27 85,-36 117,-26 21,6 37,20 45,39 2,6 -1,13 -8,15 -1,1 -3,1 -4,1z"/>
      <path class="fil0 str0" d="M15879 7036c-50,0 -111,-32 -148,-65 -7,-6 -7,-15 -1,-21 7,-6 17,-6 23,0 42,37 104,62 139,55 12,-2 20,-8 24,-18 3,-7 12,-11 20,-8 9,3 13,11 9,19 -8,19 -24,31 -47,36 -6,1 -12,2 -19,2z"/>
      <path class="fil0 str0" d="M16290 8711c5,-144 -54,-333 -177,-410 -100,-63 -259,-114 -412,-164 -114,-37 -222,-72 -295,-109 -120,-60 -31,-247 28,-370 12,-24 21,-45 28,-61 4,-8 14,-12 23,-9 9,2 14,11 11,18 -7,18 -17,38 -29,62 -51,108 -137,288 -43,335 71,35 177,70 290,106 155,51 316,103 420,168 79,50 125,134 149,195 27,67 41,139 43,209 -12,10 -24,20 -36,30z"/>
      <path class="fil0 str0" d="M15403 9046c16,-195 -111,-297 -234,-397 -84,-68 -164,-133 -187,-222 -38,-150 34,-253 104,-353 39,-54 78,-111 99,-175 43,-130 2,-196 -34,-254 -26,-41 -49,-79 -41,-131 15,-104 116,-147 204,-185 71,-30 138,-59 157,-113 25,-77 -4,-137 -34,-201 -30,-63 -60,-127 -37,-207 32,-112 169,-161 269,-196 37,-13 70,-25 86,-36 120,-83 159,-157 110,-209 -6,-7 -5,-16 2,-21 8,-5 19,-4 25,2 19,20 39,54 23,102 -16,47 -62,97 -137,149 -21,14 -55,26 -95,40 -93,33 -221,78 -249,176 -20,70 7,128 36,189 31,66 63,134 35,220 -23,67 -100,100 -175,132 -88,38 -172,74 -185,162 -7,43 13,75 37,113 37,60 84,135 37,276 -22,68 -63,126 -102,182 -70,99 -136,193 -100,332 20,80 96,142 177,207 122,99 259,210 245,415 -12,1 -24,2 -36,3z"/>
      <path class="fil0 str0" d="M14597 8894c-60,-98 -89,-220 -82,-350 11,-179 90,-342 218,-446 95,-77 74,-248 56,-386 -8,-64 -15,-124 -11,-168 15,-148 127,-217 226,-279 59,-37 115,-72 144,-120 51,-85 55,-162 59,-237 4,-73 8,-148 55,-224 78,-128 193,-151 295,-172 108,-22 203,-41 249,-176 2,-8 12,-12 21,-10 10,2 15,10 13,18 -52,151 -165,175 -275,197 -99,20 -201,41 -271,156 -44,71 -48,139 -52,212 -4,78 -9,159 -63,249 -32,54 -92,91 -154,131 -97,60 -198,123 -212,258 -4,41 3,100 11,162 19,144 41,324 -66,411 -122,98 -198,254 -207,426 -8,140 31,276 105,375 -20,-9 -39,-17 -59,-27z"/>
      <path class="fil0 str0" d="M13878 7049c42,-18 86,-32 129,-46 100,-33 204,-67 276,-140 59,-60 102,-152 143,-241 41,-89 83,-180 142,-242 187,-196 387,-283 649,-283 75,0 215,16 360,61 111,34 256,95 317,193 5,7 1,16 -7,20 -9,3 -20,1 -24,-7 -31,-49 -108,-120 -298,-178 -132,-41 -270,-59 -348,-59 -122,0 -227,19 -323,58 -105,44 -203,114 -298,213 -56,59 -97,148 -137,234 -42,92 -86,186 -149,250 -78,78 -185,114 -290,148 -49,16 -97,32 -142,52l0 -33z"/>
      <path class="fil0 str0" d="M16719 7814l-28 -15c-82,-44 -161,-87 -198,-134 -65,-82 -30,-155 7,-232 29,-59 58,-120 52,-195 -10,-115 -80,-162 -148,-207 -42,-28 -85,-57 -111,-101 -33,-55 -32,-106 -31,-159 1,-42 1,-86 -13,-136 -16,-56 -68,-120 -139,-172 -73,-53 -154,-85 -223,-88 -9,-1 -17,-8 -16,-16 0,-8 9,-14 18,-14 77,4 166,39 244,96 78,56 132,124 150,187 16,54 15,101 14,143 -1,52 -1,97 27,146 23,38 61,64 102,91 70,47 150,100 161,228 7,82 -26,149 -54,208 -37,76 -65,135 -10,205 33,42 108,83 188,126l8 4 0 35z"/>
      <path class="fil0 str0" d="M16618 8300c-32,-58 -89,-106 -147,-157 -92,-79 -187,-162 -208,-293 -23,-150 25,-251 67,-340 47,-102 88,-190 32,-331 -20,-50 -53,-87 -85,-122 -35,-38 -70,-77 -89,-131 -21,-60 -24,-119 -26,-176 -4,-71 -7,-138 -43,-200 -40,-71 -116,-127 -238,-177 -9,-3 -13,-12 -8,-20 4,-7 14,-10 23,-6 130,52 211,113 255,190 39,68 42,141 46,212 3,55 6,112 25,169 17,48 49,84 83,121 34,37 69,76 91,131 60,151 14,248 -34,350 -42,91 -85,184 -64,327 19,121 110,200 198,276 53,45 104,89 139,140 -5,13 -11,25 -17,37z"/>
      <path class="fil0 str0" d="M14035 8404c65,-151 209,-354 261,-424 140,-191 112,-275 85,-355 -19,-55 -38,-112 2,-199 68,-149 150,-195 245,-250 63,-35 134,-76 213,-154 90,-90 89,-179 88,-274 0,-105 -1,-213 131,-314 220,-168 357,-152 515,-134 20,3 42,5 63,7 10,1 17,9 16,17 -1,8 -10,14 -20,13 -22,-3 -43,-5 -64,-7 -156,-19 -279,-33 -486,126 -121,92 -120,189 -119,292 0,96 1,195 -97,293 -82,81 -155,123 -220,160 -94,53 -168,96 -233,236 -35,77 -19,125 0,180 28,83 59,176 -89,379 -134,182 -229,340 -268,444 -8,-12 -16,-24 -23,-36z"/>
      <path class="fil0 str0" d="M13878 7539c73,-73 167,-136 279,-187 94,-42 179,-115 248,-210 82,-114 138,-255 166,-420 30,-177 136,-322 299,-406 97,-49 210,-77 336,-83 134,-6 281,13 436,57 9,2 14,11 11,18 -3,8 -13,12 -22,10 -151,-43 -293,-62 -423,-56 -120,6 -228,32 -319,79 -154,80 -255,217 -283,385 -29,169 -86,314 -170,431 -73,100 -163,177 -262,221 -123,56 -223,126 -296,209l0 -48z"/>
      <path class="fil0 str0" d="M15637 7414c-97,0 -181,-58 -200,-137 -2,-7 3,-13 11,-15 8,-1 16,3 17,10 17,68 89,117 172,117 97,0 176,-66 176,-147 0,-81 -79,-147 -176,-147 -46,0 -90,16 -123,43 -6,5 -15,5 -21,0 -5,-5 -5,-13 1,-18 38,-31 89,-49 143,-49 113,0 205,77 205,171 0,95 -92,172 -205,172z"/>
     </g>
    </g>
   </g>
   <path class="fil0 str0" d="M15920 7684c-7,0 -14,0 -20,0 -29,-1 -45,-4 -143,-27l-46 -12c-64,-15 -78,-18 -101,-22 -42,-6 -85,-9 -129,-9 0,0 0,0 0,0 -10,0 -18,-6 -18,-14 0,-8 8,-15 17,-15 46,0 92,3 136,10 25,4 40,7 104,23l47 11c97,23 110,26 132,26 38,1 79,1 113,-21 40,-27 45,-70 46,-88 0,-8 9,-13 17,-14 10,1 17,7 17,15 0,21 -8,75 -59,109 -36,25 -77,28 -113,28z"/>
   <path class="fil0 str0" d="M16206 7174c-5,0 -9,-1 -12,-4 -7,-5 -7,-14 -1,-20 6,-5 9,-10 10,-15 2,-13 -15,-27 -37,-45 -9,-7 -17,-15 -26,-22l1 -1c-26,-20 -69,-89 -71,-92 -34,-56 -25,-104 -15,-156 7,-31 13,-64 9,-101 -8,-75 -52,-150 -129,-222 -6,-6 -6,-15 2,-20 7,-6 18,-5 24,1 82,77 128,157 137,238 5,41 -2,75 -9,109 -9,49 -17,90 12,138 37,60 63,85 64,86 0,0 0,0 0,0 9,8 17,14 25,21 26,22 52,42 47,70 -2,11 -8,21 -19,31 -3,3 -8,4 -12,4z"/>
  </g>
 </g>
</svg>
