<?xml version="1.0" encoding="UTF-8"?>
<!DOCTYPE svg PUBLIC "-//W3C//DTD SVG 1.1//EN" "http://www.w3.org/Graphics/SVG/1.1/DTD/svg11.dtd">
<!-- Creator: CorelDRAW X7 -->
<svg xmlns="http://www.w3.org/2000/svg" xml:space="preserve" width="88.9mm" height="50.8mm" version="1.1" style="shape-rendering:geometricPrecision; text-rendering:geometricPrecision; image-rendering:optimizeQuality; fill-rule:evenodd; clip-rule:evenodd"
viewBox="0 0 8890 5080"
 xmlns:xlink="http://www.w3.org/1999/xlink">
 <defs>
  <style type="text/css">
   <![CDATA[
    .fil2 {fill:#CD6B5A;fill-rule:nonzero}
    .fil0 {fill:#D26B54;fill-rule:nonzero}
    .fil1 {fill:#FCE7D9;fill-rule:nonzero}
   ]]>
  </style>
 </defs>
 <g id="РЁР_x00b0_СЂ_x0020_1">
  <metadata id="CorelCorpID_0Corel-Layer"/>
  <polygon class="fil0" points="4507,2797 4371,2797 4371,2662 4507,2662 "/>
  <g id="_2084011384608">
   <g>
    <path class="fil1" d="M4474 2689c0,-1 0,-1 -1,0 0,0 0,0 0,0 5,7 7,15 7,23l0 42c0,8 -2,16 -6,23 -1,0 0,0 0,0 0,1 0,1 0,1 0,0 0,-1 0,-1 5,-7 7,-15 7,-23l0 -42c0,-8 -2,-16 -7,-23z"/>
    <path class="fil1" d="M4398 2754l0 -42c0,-8 3,-16 7,-23 1,0 0,0 0,0 0,-1 0,-1 0,0 -5,7 -8,15 -8,23l0 42c0,8 3,16 7,23 0,0 1,1 1,1 0,0 0,0 0,-1 0,0 0,0 0,0 -4,-7 -7,-15 -7,-23z"/>
    <path class="fil1" d="M4475 2712c0,-9 -3,-18 -10,-25 -7,-7 -16,-11 -26,-11 -9,0 -18,4 -25,11 -7,7 -11,16 -11,25l0 42c0,10 4,19 11,26 7,7 16,10 25,10 10,0 19,-3 26,-10 7,-7 10,-16 10,-26l0 -42zm-1 42l0 0c0,20 -15,35 -35,35 -19,0 -35,-15 -35,-35l0 -42c0,-19 16,-35 35,-35 20,0 35,16 35,35l0 42z"/>
   </g>
   <path class="fil1" d="M4403 2727c2,0 4,-1 7,-3 6,-6 3,-12 8,-19 8,-10 26,-8 30,-5 3,2 4,3 4,3 1,2 2,2 3,3 2,1 3,1 4,2 3,1 5,4 6,5 2,4 0,6 2,11 2,4 5,5 7,6 0,1 1,1 1,2l0 22c0,20 -16,36 -36,36l0 0c-19,0 -36,-16 -36,-36l0 -27z"/>
   <g>
    <g>
     <g>
      <g>
       <g>
        <path class="fil2" d="M4457 2740c0,0 -1,0 -1,0 0,0 0,-1 1,-1 0,0 1,0 1,-1 1,-1 2,-2 3,-2 0,1 1,1 1,2 0,1 -1,1 -2,2 0,0 0,0 0,0 0,-1 0,-1 0,-1 1,0 1,-1 1,-1 0,-1 0,-1 0,-1 -1,0 -1,1 -2,1 -1,1 -1,2 -2,2 0,0 0,0 0,0z"/>
        <path class="fil2" d="M4458 2740c-1,0 -2,0 -3,0 0,0 0,0 0,-1 0,0 0,0 1,0 1,1 3,1 4,0 0,0 1,0 1,0 0,0 0,1 -1,1 0,0 -1,0 -2,0z"/>
        <path class="fil2" d="M4460 2743c-2,0 -3,-2 -3,-2 0,-1 0,-1 -1,-1 0,0 0,0 0,0 1,-1 1,-1 1,0 0,0 0,0 0,0 1,1 2,2 3,2 0,0 0,0 0,0 0,0 1,0 1,-1 0,0 0,-1 -1,-1 0,-1 0,-1 0,-1 0,0 1,0 1,0 0,1 1,2 0,3 0,0 0,1 -1,1 0,0 0,0 0,0z"/>
       </g>
       <path class="fil2" d="M4459 2734c0,0 0,0 -1,0 0,0 0,-1 0,-1 0,-1 0,-2 1,-2 0,0 0,0 0,0 0,0 0,1 0,1 0,0 -1,0 -1,1 0,0 1,0 1,1 0,0 1,-1 1,-1 0,0 0,0 1,0 0,0 0,0 0,0 0,0 1,0 1,0 0,0 0,0 0,1 0,0 -1,0 -1,0 0,0 0,0 0,0 0,0 0,0 0,0 0,0 -1,0 -1,0 0,0 0,0 -1,0z"/>
       <path class="fil2" d="M4448 2722c0,0 0,0 0,0 0,0 0,-1 0,-1 0,0 3,-1 4,-1 1,0 3,0 4,1 0,-1 0,-1 0,-1 0,-1 0,-1 0,-1 1,0 1,0 1,1 0,0 0,1 -1,1 0,1 0,1 -1,0 -1,0 -2,0 -3,0 -1,0 -3,1 -4,1 0,0 0,0 0,0z"/>
       <path class="fil2" d="M4448 2722c0,0 0,0 0,0 -1,0 0,-1 0,-1 1,-1 2,-2 5,-2 2,0 3,0 3,0 1,0 1,0 1,1 0,0 0,0 -1,0 0,0 -1,0 -3,0 -2,0 -4,1 -5,2 0,0 0,0 0,0z"/>
       <path class="fil2" d="M4449 2727c0,0 0,0 0,-1 0,0 0,0 0,0 2,0 3,-1 4,-1 0,-1 0,-1 1,-1 1,0 1,0 2,0 0,1 0,1 0,1 1,1 0,1 0,1 0,0 0,0 0,0 0,-1 -1,-2 -2,-1 0,0 -1,0 -1,0 -1,1 -2,1 -4,2 0,0 0,0 0,0z"/>
       <path class="fil2" d="M4454 2728c0,0 0,0 -1,0 0,-1 0,-3 0,-4 0,0 0,0 1,0 0,0 0,1 0,1 0,0 0,1 0,2 0,0 0,0 0,0 0,0 1,0 1,0 0,-1 0,-2 0,-2 -1,-1 -1,-1 0,-1 0,0 0,0 0,0 1,1 1,2 0,3 0,1 0,1 -1,1 0,0 0,0 0,0z"/>
       <g>
        <path class="fil2" d="M4455 2725c0,0 0,2 0,2 -1,0 -1,-2 0,-2z"/>
        <path class="fil2" d="M4455 2727c-1,0 -1,-1 -1,-1 0,-1 0,-1 1,-1l0 0 0 0c0,0 0,1 0,1 0,1 0,1 0,1 0,0 0,0 0,0zm0 -2l0 0c0,0 0,0 0,0 -1,1 0,2 0,2 0,0 0,-1 0,-1 0,-1 0,-1 0,-1z"/>
       </g>
       <path class="fil2" d="M4455 2725c0,0 0,0 0,0 0,-1 0,-1 -1,-1 0,0 -1,0 -2,1 0,0 0,0 -1,-1 0,0 0,0 1,0 1,-1 2,-1 3,-1 0,0 0,1 1,1 0,1 0,1 -1,1 0,0 0,0 0,0z"/>
       <path class="fil2" d="M4454 2728c-1,0 -3,-1 -4,-2 0,0 0,0 0,0 0,0 1,0 1,0 1,1 2,2 3,1 1,0 1,0 1,0 0,0 0,0 0,0 1,0 1,0 1,0 0,1 -1,1 -1,1 -1,0 -1,0 -1,0z"/>
       <path class="fil2" d="M4464 2780c1,-5 -1,-10 -4,-13 -3,-2 -7,-3 -10,-5 -3,-1 -6,-2 -8,-3 -3,-2 -1,-8 1,-11 0,-1 0,-2 1,-2 0,-1 0,-1 0,-1 0,0 0,1 0,1 0,0 0,1 0,2 -2,3 -4,9 -1,10 1,1 4,2 7,3 4,2 8,4 10,6 2,1 4,4 4,6 1,2 1,4 1,6 0,0 0,1 -1,1z"/>
       <path class="fil2" d="M4442 2790c0,-6 -3,-9 -6,-12 -2,-2 -4,-4 -5,-7 -1,-4 1,-8 3,-11 1,-1 2,-3 3,-5 1,-4 0,-6 -1,-8 -1,-1 -2,-2 -1,-4 0,-3 3,-4 5,-6 2,0 3,-1 4,-3 0,-2 0,-4 -1,-6 -1,-2 -2,-4 -1,-7 1,-3 4,-5 7,-6 1,0 1,0 2,-1 3,-2 4,-5 3,-6 0,0 0,-1 0,-1 0,0 0,0 0,0 1,1 1,2 1,3 0,2 -2,3 -4,5 0,0 -1,1 -2,1 -2,1 -5,3 -6,6 -1,2 0,4 1,5 0,2 1,5 1,7 -1,2 -3,3 -5,4 -2,1 -4,3 -5,5 0,2 1,3 1,4 1,2 3,4 1,8 0,2 -1,4 -2,6 -2,3 -4,6 -3,10 1,2 3,4 5,6 3,3 6,7 6,13 0,0 -1,0 -1,0z"/>
       <path class="fil2" d="M4422 2786c-2,-3 -3,-7 -2,-11 0,-6 2,-11 5,-14 2,-2 2,-8 1,-12 0,-2 0,-4 0,-5 1,-5 3,-7 6,-9 1,-1 3,-2 4,-3 1,-3 1,-5 1,-8 0,-2 0,-4 1,-6 2,-4 5,-5 8,-6 3,0 5,-1 6,-5 0,0 0,0 1,0 0,0 0,0 0,0 -1,5 -4,5 -7,6 -2,1 -5,1 -7,5 -1,2 -1,4 -1,7 0,2 0,4 -2,7 0,2 -2,3 -4,4 -2,2 -5,4 -5,8 0,1 0,3 0,5 1,5 1,10 -1,13 -3,3 -5,8 -6,13 0,4 1,8 3,11 0,0 -1,0 -1,0z"/>
       <path class="fil2" d="M4403 2729c2,-1 3,-1 4,-2 2,-1 5,-2 7,-4 1,-2 2,-5 3,-7 1,-3 2,-6 4,-8 5,-6 10,-8 16,-8 2,0 6,0 9,1 3,1 7,3 8,6 1,1 0,1 0,1 0,0 0,0 0,0 -1,-2 -3,-4 -8,-6 -3,-1 -7,-2 -9,-2 -3,0 -5,1 -8,2 -3,2 -5,4 -7,7 -2,2 -3,4 -4,7 -1,3 -2,6 -4,8 -2,2 -4,3 -7,4 -1,1 -2,1 -4,2l0 -1z"/>
       <path class="fil2" d="M4475 2752l0 0c-3,-1 -5,-3 -5,-4 -2,-3 -1,-5 0,-7 0,-2 1,-4 1,-6 0,-4 -2,-5 -4,-7 -1,-1 -2,-1 -3,-3 0,-2 0,-3 0,-5 0,-1 0,-2 -1,-4 0,-2 -1,-4 -3,-5 -2,-2 -4,-3 -6,-3 0,0 0,0 0,0 0,-1 0,-1 0,-1 2,0 4,1 6,3 2,2 4,4 4,6 1,2 1,3 1,4 0,2 0,3 0,5 1,1 2,2 3,3 2,1 4,3 4,7 0,2 -1,4 -1,6 -1,2 -2,4 -1,6 1,2 3,3 5,4l0 0 0 1z"/>
       <path class="fil2" d="M4473 2767c-1,-1 -3,-3 -4,-5 -2,-2 -5,-5 -5,-9 -1,-4 0,-7 1,-10 2,-3 3,-6 1,-10 0,-2 -1,-3 -2,-4 -1,-1 -2,-2 -2,-4 -1,-2 -1,-4 -1,-5 0,-3 0,-5 -1,-7 -1,-2 -3,-3 -6,-5 0,0 0,0 0,-1 0,0 0,0 0,0 4,2 6,4 7,6 1,2 1,4 1,7 0,1 0,3 1,5 0,1 1,2 2,4 1,1 2,2 2,4 2,4 0,7 -1,10 -1,3 -2,6 -1,10 0,4 2,6 5,9 1,1 2,3 3,4 0,1 0,1 0,1z"/>
       <path class="fil2" d="M4407 2770c2,-4 6,-10 7,-13 4,-5 3,-8 2,-10 0,-2 -1,-4 0,-7 2,-4 4,-6 6,-7 2,-1 4,-3 6,-5 2,-3 2,-6 2,-8 0,-4 0,-7 3,-10 6,-5 9,-5 13,-4 1,0 1,0 2,0 0,0 0,0 0,1 0,0 0,0 0,0 -1,0 -1,0 -2,0 -4,-1 -7,-1 -12,4 -3,2 -3,5 -3,9 0,3 0,6 -3,9 -2,2 -3,3 -5,4 -2,2 -4,3 -6,8 -1,2 0,4 0,5 1,3 2,6 -2,12 -4,6 -6,10 -7,14 0,-1 0,-1 -1,-2z"/>
       <path class="fil2" d="M4403 2744c2,-2 5,-4 8,-6 2,-1 4,-3 6,-6 2,-4 3,-8 4,-13 1,-6 3,-10 8,-13 2,-1 5,-2 8,-2 3,0 7,0 11,1 0,1 0,1 0,1 0,0 0,0 0,0 -4,-1 -8,-2 -11,-1 -3,0 -6,1 -8,2 -4,2 -6,7 -7,12 -1,5 -2,10 -4,13 -2,3 -5,6 -7,7 -3,2 -6,4 -8,6l0 -1z"/>
       <path class="fil2" d="M4448 2740c-3,0 -5,-2 -5,-4 0,0 0,-1 0,-1 0,0 1,0 1,1 0,2 2,3 4,3 2,0 4,-2 4,-4 0,-3 -2,-5 -4,-5 -1,0 -2,1 -3,2 0,0 -1,0 -1,0 0,-1 0,-1 0,-1 1,-1 3,-2 4,-2 3,0 5,3 5,6 0,3 -2,5 -5,5z"/>
      </g>
     </g>
    </g>
    <path class="fil2" d="M4455 2748c0,0 0,0 0,0 -1,0 -2,0 -4,-1l-1 0c-2,0 -2,0 -3,-1 -1,0 -2,0 -3,0 0,0 0,0 0,0 0,0 0,0 0,0 0,0 0,-1 0,-1 1,0 2,0 3,1 1,0 1,0 3,0l1 1c3,0 3,0 4,0 1,0 2,0 2,0 1,-1 2,-2 2,-3 0,0 0,0 0,0 0,0 0,0 0,0 0,1 0,2 -1,3 -1,1 -2,1 -3,1z"/>
    <path class="fil2" d="M4462 2733c0,0 0,0 0,0 0,-1 0,-1 0,-1 0,0 0,0 0,-1 0,0 0,0 -1,-1 0,0 0,0 0,-1l0 0c-1,0 -2,-2 -2,-2 -1,-2 -1,-4 -1,-5 1,-1 1,-2 1,-3 0,-3 -2,-5 -4,-7 0,0 0,-1 0,-1 1,0 1,0 1,0 2,3 3,5 4,8 0,1 0,2 -1,3 0,1 0,3 1,4 1,2 1,3 1,3 0,0 0,0 0,0 0,0 1,0 1,0 1,1 1,2 1,3 0,0 0,0 0,1 0,0 -1,0 -1,0z"/>
   </g>
   <g>
    <path class="fil1" d="M4448 2695c-1,0 -1,0 -1,0l0 -2 -1 0c0,0 0,0 0,0 0,-1 0,-1 0,-1l1 0 0 -2c0,0 0,0 1,0 0,0 0,0 0,0l0 2 1 0c0,0 0,0 0,1 0,0 0,0 0,0l-1 0 0 2c0,0 0,0 0,0zm-1 -2l0 0 0 0c0,0 1,0 1,0l0 0 0 0c0,0 0,0 0,0l0 0 0 0c0,0 0,-1 0,-1l0 0 0 0c0,0 -1,1 -1,1l0 0z"/>
    <path class="fil1" d="M4466 2704c0,0 0,0 0,0l-1 -1 -1 -1c0,0 0,0 0,0 0,0 0,0 0,0l1 -1 1 -1c0,0 0,-1 0,-1 0,0 0,1 0,1l1 1 1 1c0,0 0,0 0,0 0,0 0,0 0,0l-1 1 -1 1c0,0 0,0 0,0zm-1 -2l0 0 1 0c0,0 0,0 0,0l0 0 0 0c0,0 0,0 0,0l0 0 0 0c0,0 0,0 0,0l0 -1 0 1c0,0 0,0 0,0l-1 0z"/>
    <path class="fil1" d="M4468 2715c0,0 0,0 0,0l-1 -2 -1 -1c0,0 0,0 0,0 0,0 0,0 0,0l1 -1 1 -2c0,0 0,0 0,0 0,0 0,0 0,0l1 2 1 1c0,0 0,0 0,0 0,0 0,0 0,0l-1 1 -1 2c0,0 0,0 0,0zm-1 -3l0 0 1 0c0,0 0,0 0,0l0 1 0 -1c0,0 0,0 0,0l1 0 -1 0c0,0 0,0 0,0l0 -1 0 1c0,0 0,0 0,0l-1 0z"/>
    <path class="fil1" d="M4423 2699c-1,0 -1,0 -1,0l0 -3 -2 0c0,0 0,0 0,0 0,0 0,-1 0,-1l2 0 0 -2c0,0 0,-1 1,-1 0,0 0,1 0,1l0 2 2 0c0,0 0,1 0,1 0,0 0,0 0,0l-2 0 0 3c0,0 0,0 0,0zm-1 -3l0 0 0 0c0,0 0,0 0,0l1 1 0 -1c0,0 0,0 0,0l1 0 -1 0c0,-1 0,-1 0,-1l0 -1 -1 1c0,0 0,0 0,1l0 0z"/>
    <path class="fil1" d="M4470 2724c0,0 0,0 0,-1 0,0 0,0 0,-1 -1,0 -1,0 -1,0 0,0 0,0 0,0 -1,0 -1,0 -1,0 0,0 0,-1 1,-1 0,0 0,0 1,0 0,0 0,-1 0,-1 0,0 0,0 0,0 0,0 0,0 0,0 0,0 1,0 1,0 0,1 0,1 1,1 0,0 0,1 0,1 0,0 0,0 0,0 -1,0 -1,1 -1,1 0,1 -1,1 -1,1zm0 -2l0 0c0,0 0,0 0,0 0,0 0,0 0,0 0,0 1,0 1,0 0,0 -1,-1 -1,-1 0,0 0,0 0,0 0,1 0,1 0,1z"/>
    <path class="fil1" d="M4460 2696c0,0 0,0 0,0 0,0 0,0 0,0 0,-1 -1,-1 -1,-1 0,-1 0,-1 -1,-1 0,0 0,0 0,0 0,0 0,0 0,0 0,0 0,0 0,0 1,0 1,0 1,-1 0,0 1,0 1,-1 0,0 0,0 0,0 0,0 0,0 0,0 0,0 0,0 0,0 0,1 1,2 1,2 1,0 1,0 1,0 0,0 0,0 -1,0 0,0 -1,1 -1,2 0,0 0,0 0,0zm-1 -2l0 0c0,0 0,0 1,0 0,0 0,0 0,1 0,-1 0,-1 0,-1 0,0 0,0 0,-1 0,0 0,1 0,1 -1,0 -1,0 -1,0z"/>
    <path class="fil1" d="M4454 2686c0,0 0,0 0,0 0,0 0,0 0,0 0,0 0,0 0,-1 -1,0 -1,0 -1,0 0,0 0,0 0,0l0 0c0,0 0,0 0,0 0,0 0,0 0,0 0,0 0,-1 1,-1 0,0 0,0 0,0 0,0 0,-1 0,-1 0,0 0,0 0,0 0,0 0,1 0,1 0,0 1,1 1,1 0,0 1,0 1,0 0,0 -1,0 -1,0 0,0 -1,0 -1,1 0,0 0,0 0,0zm0 -1l0 0c0,0 0,0 0,0 0,0 0,0 0,0 0,0 0,0 0,0 0,0 0,0 0,0 0,0 0,0 0,0 0,0 0,0 0,0z"/>
    <path class="fil1" d="M4413 2699l0 0c0,0 0,0 0,0 0,0 0,0 0,0 0,0 0,0 -1,0 0,0 0,0 0,0 0,0 0,-1 0,-1 0,0 0,0 0,0 1,0 1,0 1,0 0,0 0,0 0,-1 0,0 0,0 0,0 0,0 0,0 0,0 0,0 1,0 1,0 0,1 0,1 0,1 0,0 0,0 0,0 0,0 0,1 0,1 0,0 0,0 0,0 0,0 -1,0 -1,0zm0 -1l0 0c0,0 0,0 0,0 0,0 0,0 0,0 0,0 0,0 0,0 0,0 0,0 0,0 0,0 0,0 0,0 0,0 0,0 0,0z"/>
    <path class="fil1" d="M4412 2711c0,0 0,0 0,0 0,0 0,0 0,0 0,0 0,-1 0,-1 0,0 -1,0 -1,0 0,0 0,0 0,0 0,0 0,0 0,0 0,0 0,0 0,0 0,0 1,0 1,-1 0,0 0,0 0,0 0,0 0,0 0,0 0,0 0,0 0,0 0,0 0,0 0,0 0,0 1,1 1,1 0,0 0,0 0,0 0,0 0,0 0,0 0,0 -1,0 -1,1 0,0 0,0 0,0zm0 -1l0 0c0,0 0,0 0,0 0,0 0,0 0,0 0,0 0,0 0,0 0,0 0,0 0,0 0,0 0,0 0,0 0,0 0,0 0,0z"/>
    <g>
     <path class="fil1" d="M4440 2696c0,0 0,0 0,-1l0 0c0,0 0,0 0,0 0,0 1,0 1,0l0 0c0,1 -1,1 -1,1z"/>
     <path class="fil1" d="M4441 2695l-1 0c0,0 0,0 0,0 0,0 0,0 0,0l1 0c0,0 0,0 0,0 0,0 0,0 0,0z"/>
    </g>
    <g>
     <path class="fil1" d="M4432 2695c0,0 0,-1 0,-1l0 0c0,-1 0,-1 0,-1 0,0 0,0 0,1l0 0c0,0 0,1 0,1z"/>
     <path class="fil1" d="M4432 2694l0 0c-1,0 -1,0 -1,0 0,0 0,0 1,0l0 0c0,0 1,0 1,0 0,0 -1,0 -1,0z"/>
    </g>
    <g>
     <path class="fil1" d="M4443 2687c0,0 -1,0 -1,0l0 -2c0,0 1,0 1,0 0,0 0,0 0,0l0 2c0,0 0,0 0,0z"/>
     <path class="fil1" d="M4443 2686l-1 0c0,0 0,0 0,0 0,0 0,0 0,0l1 0c1,0 1,0 1,0 0,0 0,0 -1,0z"/>
    </g>
    <g>
     <path class="fil1" d="M4409 2720c0,0 0,0 0,-1l0 -1c0,0 0,0 0,0 0,0 0,0 0,0l0 1c0,1 0,1 0,1z"/>
     <path class="fil1" d="M4410 2719l-1 0c-1,0 -1,0 -1,0 0,0 0,-1 1,-1l1 0c0,0 0,1 0,1 0,0 0,0 0,0z"/>
    </g>
    <g>
     <path class="fil1" d="M4457 2705c0,0 0,0 0,0 0,-1 0,-1 0,-1l1 -1c0,0 0,0 1,0 0,0 0,1 0,1l-1 1c0,0 0,0 -1,0z"/>
     <path class="fil1" d="M4458 2705c0,0 0,0 0,0l-1 -1c0,0 0,-1 0,-1 0,0 1,0 1,0l1 1c0,0 0,0 0,1 -1,0 -1,0 -1,0z"/>
    </g>
   </g>
   <g>
    <path class="fil1" d="M4458 2677c0,0 -2,1 -6,1 -4,0 -7,-1 -7,-1 0,-1 0,-1 0,-1 0,0 0,0 0,0 0,0 2,-2 7,-2 3,0 6,2 6,2 1,0 1,0 1,0 0,0 0,0 -1,0 0,0 0,1 0,1zm-12 -1l0 0c1,1 3,2 6,2 3,0 5,-1 6,-2 -1,0 -4,-1 -6,-1 -4,0 -5,1 -6,1zm-1 0l0 0 0 0 0 0z"/>
    <path class="fil1" d="M4440 2675c-1,0 -3,1 -3,1 0,0 0,0 0,0 0,0 0,0 0,0 0,0 1,-3 3,-4 2,-2 4,-2 4,-3 0,0 0,0 0,1 0,0 0,0 0,0 0,0 0,2 -3,4 0,0 0,0 -1,1zm-2 0l0 0c0,0 2,-1 3,-1 2,-2 2,-3 2,-4 0,0 -2,1 -3,2 -1,1 -2,3 -2,3z"/>
    <path class="fil1" d="M4408 2696c0,0 0,0 0,0 0,0 0,0 0,0 0,-1 -1,-3 -1,-5 0,-3 1,-4 1,-4 0,0 0,0 0,0 0,0 0,0 0,0 0,0 2,1 2,4 -1,2 -2,4 -2,5 0,0 0,0 0,0zm0 -9l0 0c0,1 -1,2 -1,4 0,1 1,3 1,4 0,-1 1,-2 1,-4 0,-1 0,-2 0,-3 0,0 -1,0 -1,-1z"/>
    <path class="fil1" d="M4446 2683c0,0 0,0 0,0 0,0 -4,0 -6,-1 -3,-2 -4,-5 -4,-5 0,-1 0,-1 0,-1 0,0 1,0 1,0 0,0 3,1 5,3 2,1 4,4 4,4 0,0 0,0 0,0 0,0 0,0 0,0zm-9 -6l0 0c0,1 1,3 3,4 2,1 4,2 5,2 0,-1 -2,-3 -3,-4 -2,-1 -4,-2 -5,-2z"/>
    <path class="fil1" d="M4430 2678c0,0 0,0 0,0 0,0 0,0 0,0 0,0 0,-4 1,-6 3,-3 6,-4 6,-5 0,0 0,0 0,0 0,1 0,1 0,1 0,0 0,3 -2,6 -2,2 -5,4 -5,4 0,0 0,0 0,0zm7 -10l0 0c-1,1 -4,2 -5,5 -1,1 -2,3 -2,4 1,0 3,-2 4,-3 2,-3 3,-5 3,-6 0,0 0,0 0,0z"/>
    <g>
     <path class="fil1" d="M4414 2687c0,0 0,0 0,0 0,0 0,-1 0,-1 2,-2 3,-4 4,-6 0,0 0,0 1,0 0,0 0,0 0,0 -1,2 -3,5 -4,7 0,0 -1,0 -1,0z"/>
     <path class="fil1" d="M4420 2680c-1,0 -1,1 -2,1 0,0 0,0 0,0 0,-1 -1,-2 1,-5 1,-2 4,-4 4,-4 0,0 0,0 0,0 0,0 0,0 0,0 0,0 0,3 -1,6 -1,1 -2,2 -2,2zm-1 0l0 0c0,0 1,-1 2,-2 1,-2 2,-4 2,-5 -1,0 -3,2 -4,3 -1,2 -1,4 0,4z"/>
    </g>
    <path class="fil1" d="M4409 2694c0,1 0,1 -1,1 0,-1 0,-1 0,-1 3,-5 7,-6 8,-6 1,0 1,0 1,0 0,1 0,1 -1,1 -1,0 -5,1 -7,5 0,0 0,0 0,0z"/>
    <path class="fil1" d="M4426 2688c-1,0 -4,1 -6,2 -2,0 -4,-1 -4,-1 0,0 0,0 0,-1 0,0 1,-2 4,-2 3,0 6,1 6,1 0,0 0,0 0,0 0,0 0,0 0,0 0,0 0,0 0,1zm-9 0l0 0c0,1 1,1 3,1 2,0 4,-1 5,-2 -1,0 -3,0 -5,0 -2,0 -3,1 -3,1zm-1 1l0 0 0 0 0 0z"/>
    <path class="fil1" d="M4414 2687c0,0 0,0 0,0 0,0 0,0 0,0 0,-1 -1,-3 -2,-5 0,-3 2,-6 2,-6 0,0 0,0 0,0 0,0 0,0 0,0 0,0 1,2 2,5 0,2 -1,5 -1,5 0,1 -1,1 -1,1zm0 -11l0 0c-1,1 -2,4 -1,6 0,1 1,3 1,4 1,-1 1,-4 1,-5 0,-2 -1,-4 -1,-5z"/>
    <g>
     <path class="fil1" d="M4417 2694c0,0 0,0 0,0 0,0 -1,0 -2,1 0,0 -1,1 -1,1 -1,0 -1,1 -2,1 -3,2 -5,1 -5,1 0,0 0,0 0,0 0,0 0,0 0,0 0,-1 1,-3 4,-4 3,-1 6,0 6,0 0,0 0,0 0,0 0,0 0,0 0,0zm-9 3l0 0c0,1 2,1 3,0 1,-1 2,-1 3,-2 0,0 0,0 1,0 0,-1 1,-1 1,-1 -1,0 -3,0 -5,1 -2,0 -3,2 -3,2z"/>
    </g>
    <g>
     <path class="fil1" d="M4440 2686c0,0 0,0 0,0 0,0 -2,1 -5,-1 -2,-1 -3,-2 -3,-2 -1,-1 -1,-1 0,-1 0,0 0,0 0,0 0,0 3,0 4,1 3,1 4,2 4,3 0,0 0,0 0,0 0,0 0,0 0,0zm-8 -3l0 0c1,0 2,1 3,2 2,1 3,1 4,1 0,-1 -1,-2 -3,-3 -1,0 -3,0 -4,0z"/>
     <path class="fil1" d="M4429 2684c-1,0 -1,0 -1,0 -1,-2 -4,-3 -8,-2 0,0 0,0 0,0 0,0 0,0 0,0 4,-1 7,0 9,1 0,0 0,1 0,1 0,0 0,0 0,0z"/>
     <path class="fil1" d="M4432 2692c0,0 0,0 0,0 0,0 0,0 0,0 0,0 -2,-1 -3,-4 -2,-3 -1,-5 -1,-5 0,0 0,0 0,0 1,0 3,1 4,4 1,2 0,4 0,5 0,0 0,0 0,0zm-3 -8l0 0c-1,0 -1,2 0,4 1,2 2,3 3,3 0,-1 0,-3 0,-4 -1,-2 -3,-3 -3,-3z"/>
     <path class="fil1" d="M4432 2683c0,0 0,0 0,0 -1,-1 -3,-2 -5,-2 -2,0 -4,0 -7,1 0,0 0,0 0,0 0,0 0,0 0,0 3,-1 5,-2 7,-1 2,0 4,0 5,1 0,0 0,0 0,1 0,0 0,0 0,0z"/>
    </g>
   </g>
  </g>
 </g>
</svg>
