<?xml version="1.0" encoding="UTF-8"?>
<!DOCTYPE svg PUBLIC "-//W3C//DTD SVG 1.1//EN" "http://www.w3.org/Graphics/SVG/1.1/DTD/svg11.dtd">
<!-- Creator: CorelDRAW X7 -->
<svg xmlns="http://www.w3.org/2000/svg" xml:space="preserve" width="88.9mm" height="50.8mm" version="1.1" style="shape-rendering:geometricPrecision; text-rendering:geometricPrecision; image-rendering:optimizeQuality; fill-rule:evenodd; clip-rule:evenodd"
viewBox="0 0 8890 5080"
 xmlns:xlink="http://www.w3.org/1999/xlink">
 <defs>
  <style type="text/css">
   <![CDATA[
    .str1 {stroke:#D26B54;stroke-width:35.27}
    .str0 {stroke:#FCE7D9;stroke-width:35.27}
    .fil2 {fill:#CD6B5A;fill-rule:nonzero}
    .fil0 {fill:#D26B54;fill-rule:nonzero}
    .fil1 {fill:#FCE7D9;fill-rule:nonzero}
   ]]>
  </style>
 </defs>
 <g id="РЁР_x00b0_СЂ_x0020_1">
  <metadata id="CorelCorpID_0Corel-Layer"/>
  <polygon class="fil0" points="6445,4448 2212,4448 2212,214 6445,214 "/>
  <g id="_2445527849808">
   <path class="fil1 str0" d="M5536 978c-6,-8 -16,-10 -24,-4 -8,5 -10,16 -5,23 158,229 241,496 241,772l0 1389c0,270 -80,531 -231,757 -5,7 -3,18 5,23 3,2 6,3 9,3 6,0 11,-3 15,-7 154,-231 236,-500 236,-776l0 -1389c0,-283 -85,-556 -246,-791z"/>
   <path class="fil1 str0" d="M2948 3158l0 -1389c0,-276 84,-543 241,-772 5,-7 3,-18 -5,-23 -8,-6 -18,-4 -24,4 -161,235 -246,508 -246,791l0 1389c0,276 82,545 236,776 4,4 9,7 15,7 3,0 6,-1 9,-3 8,-5 10,-16 5,-23 -151,-226 -231,-487 -231,-757z"/>
   <path class="fil1 str0" d="M5573 1769c0,-322 -128,-625 -360,-854 -232,-228 -539,-354 -865,-354 -326,0 -633,126 -865,354 -232,229 -359,532 -359,854l0 1389c0,322 127,625 359,853 232,229 539,355 865,355 326,0 633,-126 865,-355 232,-228 360,-531 360,-853l0 -1389zm-31 1389l0 0c0,649 -536,1177 -1194,1177 -658,0 -1194,-528 -1194,-1177l0 -1389c0,-650 536,-1178 1194,-1178 658,0 1194,528 1194,1178l0 1389z"/>
  </g>
  <path class="fil1" d="M3124 2267c63,-21 128,-41 206,-109 230,-201 103,-410 296,-635 281,-325 865,-251 1003,-164 105,67 150,109 150,109 45,42 62,70 112,98 49,28 80,28 119,40 118,38 184,149 204,183 81,137 10,211 71,352 59,134 177,189 228,226 21,16 41,36 60,60l0 721c0,673 -549,1218 -1225,1218l0 0c-676,0 -1224,-545 -1224,-1218l0 -881z"/>
  <g id="_2445527843632">
   <g>
    <g>
     <g>
      <g>
       <path class="fil2 str1" d="M4941 2696c-6,0 -11,-4 -14,-9 -3,-8 1,-16 8,-19 18,-7 35,-28 52,-48 28,-32 59,-68 97,-52 19,7 30,24 29,44 0,28 -21,60 -45,69 -7,3 -16,-1 -18,-8 -3,-8 0,-16 8,-19 12,-4 26,-25 27,-42 0,-9 -4,-15 -12,-18 -18,-7 -37,13 -64,45 -19,22 -39,46 -63,56 -2,0 -4,1 -5,1z"/>
       <path class="fil2 str1" d="M4973 2698c-28,0 -55,-4 -80,-12 -7,-3 -11,-11 -9,-19 3,-7 11,-11 19,-9 47,16 105,15 156,-4 7,-2 16,1 18,9 3,7 -1,15 -8,18 -31,11 -64,17 -96,17z"/>
       <path class="fil2 str1" d="M5044 2781c-48,0 -84,-48 -103,-74 -4,-6 -8,-11 -10,-13 -6,-6 -6,-15 -1,-20 6,-6 15,-6 21,-1 3,4 7,9 13,17 17,23 46,62 80,62 0,0 1,0 1,0 15,0 24,-5 28,-14 7,-15 -2,-41 -20,-61 -5,-5 -5,-14 1,-20 6,-5 15,-5 20,1 27,29 37,65 26,91 -5,11 -19,31 -54,32 -1,0 -2,0 -2,0z"/>
      </g>
      <path class="fil2 str1" d="M5021 2502c-9,0 -17,-2 -25,-7 -13,-8 -21,-24 -21,-44 1,-26 13,-51 31,-61 6,-4 14,-2 18,4 3,6 1,14 -5,18 -10,5 -18,23 -18,39 -1,5 0,18 9,23 15,9 38,-5 50,-15 3,-3 8,-7 16,-9 3,0 11,-2 20,2 4,1 9,3 12,9 2,4 3,11 -1,15 -3,3 -7,3 -8,3 -6,0 -7,-3 -13,-3 -2,0 -6,0 -12,4 -2,1 -6,4 -11,6 -12,8 -26,16 -42,16z"/>
      <path class="fil2 str1" d="M4641 2093c-4,0 -8,-2 -11,-6 -4,-7 -3,-16 3,-21 23,-19 108,-41 141,-44 52,-5 96,2 132,21 3,-4 10,-17 10,-34 1,-9 7,-15 14,-15 8,0 14,7 14,15 -1,26 -11,51 -25,60 -8,5 -16,6 -23,2 -32,-17 -72,-24 -119,-19 -34,3 -112,25 -128,38 -2,2 -5,3 -8,3z"/>
      <path class="fil2 str1" d="M4641 2086c-4,0 -9,-2 -11,-6 -4,-7 -3,-17 3,-21 38,-28 92,-59 177,-58 76,0 118,-7 118,-7 7,-1 14,5 16,13 1,8 -4,15 -12,17 -2,0 -44,7 -122,7 -77,-1 -125,26 -161,53 -3,1 -5,2 -8,2z"/>
      <path class="fil2 str1" d="M4684 2247c-7,0 -13,-6 -14,-13 -1,-8 4,-16 12,-17 55,-8 86,-26 114,-42 15,-8 28,-16 43,-21 28,-9 50,0 63,10 16,12 26,28 29,40 3,7 -1,16 -8,18 -7,3 -15,-1 -17,-9 -3,-10 -25,-42 -59,-30 -12,4 -24,11 -38,19 -29,16 -64,36 -123,45 -1,0 -2,0 -2,0z"/>
      <path class="fil2 str1" d="M4860 2300c-9,0 -23,-3 -35,-25 -16,-28 -23,-79 -9,-106 4,-7 12,-9 19,-5 6,4 8,14 5,21 -8,13 -5,51 8,74 4,7 9,12 12,12 2,-1 8,-1 12,-14 10,-25 3,-69 -6,-80 -5,-7 -4,-16 1,-22 6,-5 14,-5 19,2 18,21 24,79 12,112 -7,19 -20,30 -36,31 -1,0 -2,0 -2,0z"/>
      <g>
       <path class="fil2 str1" d="M4868 2187c18,4 20,66 5,67 -15,0 -24,-65 -5,-67z"/>
       <path class="fil2 str1" d="M4873 2261c-14,0 -21,-22 -23,-43 -1,-23 5,-37 17,-38l1 0 1 0c17,3 22,32 21,51 -1,19 -7,30 -16,30 0,0 -1,0 -1,0zm-5 -66l0 0c-2,2 -3,5 -3,10 -2,16 4,37 8,40 2,-4 4,-21 1,-37 -2,-7 -4,-11 -6,-13z"/>
      </g>
      <path class="fil2 str1" d="M4893 2185c-4,0 -9,-3 -10,-8 -5,-12 -13,-21 -25,-25 -21,-7 -50,1 -81,24 -6,3 -13,2 -16,-4 -3,-6 -2,-13 3,-17 37,-27 73,-36 101,-26 18,6 32,20 39,40 2,6 -1,13 -7,16 -1,0 -3,0 -4,0z"/>
      <path class="fil2 str1" d="M4849 2303c-43,0 -96,-32 -128,-67 -6,-6 -6,-15 0,-21 5,-6 14,-6 19,0 36,38 90,64 120,57 10,-3 17,-9 20,-19 3,-8 11,-12 18,-9 7,4 11,12 8,20 -7,20 -21,32 -41,37 -5,1 -11,2 -16,2z"/>
      <path class="fil2 str1" d="M5203 4020c4,-148 -47,-342 -153,-421 -86,-64 -223,-117 -355,-168 -98,-38 -191,-74 -254,-111 -103,-62 -27,-253 24,-380 10,-24 19,-45 24,-62 3,-8 12,-13 20,-10 8,3 12,12 9,19 -6,18 -15,40 -24,64 -45,110 -118,294 -37,343 60,36 152,72 249,109 134,52 273,105 363,172 68,51 107,137 128,200 23,68 35,143 37,214 -10,11 -20,21 -31,31z"/>
      <path class="fil2 str1" d="M4439 4363c13,-200 -96,-305 -202,-407 -73,-70 -142,-136 -161,-227 -34,-154 29,-260 89,-362 33,-56 67,-114 86,-179 36,-134 1,-201 -30,-261 -22,-41 -43,-81 -36,-134 14,-106 100,-150 177,-189 61,-31 119,-61 134,-117 23,-78 -2,-140 -28,-206 -26,-64 -52,-130 -33,-212 28,-115 146,-164 232,-200 33,-14 61,-26 75,-37 103,-85 137,-161 94,-215 -5,-6 -4,-16 3,-21 6,-5 16,-4 21,2 16,21 33,56 19,105 -13,48 -53,99 -118,152 -17,14 -47,27 -82,41 -80,34 -190,80 -214,181 -18,72 6,131 31,193 27,67 55,137 30,225 -20,69 -86,103 -150,136 -77,39 -149,75 -161,166 -5,44 12,77 33,116 32,62 72,138 32,283 -19,69 -54,129 -89,186 -60,102 -116,198 -86,340 18,83 84,146 153,213 105,101 223,215 211,425 -10,1 -20,2 -30,3z"/>
      <path class="fil2 str1" d="M3744 4208c-52,-101 -77,-227 -71,-359 9,-184 77,-351 188,-457 82,-79 63,-255 48,-396 -7,-65 -13,-127 -9,-172 13,-152 109,-223 194,-286 51,-38 99,-74 124,-123 44,-87 48,-167 51,-244 4,-74 7,-150 48,-229 67,-130 166,-154 254,-176 94,-23 175,-42 214,-180 3,-8 11,-13 19,-11 8,3 13,11 11,19 -45,155 -143,179 -237,202 -85,20 -173,42 -234,160 -37,73 -41,143 -44,217 -4,80 -8,163 -55,255 -28,56 -79,94 -133,134 -84,62 -170,127 -182,264 -4,43 3,103 9,167 16,148 36,331 -57,421 -105,101 -170,260 -178,436 -7,144 26,283 90,385 -17,-9 -34,-18 -50,-27z"/>
      <path class="fil2 str1" d="M3124 2316c36,-18 74,-33 111,-47 86,-34 176,-69 238,-144 51,-61 87,-155 123,-247 35,-90 72,-184 123,-247 161,-201 333,-290 559,-290 65,0 185,16 311,62 95,35 220,98 273,198 4,7 1,16 -7,20 -7,4 -16,1 -20,-6 -27,-51 -93,-123 -257,-183 -114,-42 -233,-61 -300,-61 -105,0 -196,20 -278,60 -91,45 -176,116 -258,218 -48,60 -83,152 -118,240 -36,94 -74,191 -128,256 -67,81 -160,117 -250,152 -42,17 -84,33 -122,54l0 -35z"/>
      <path class="fil2 str1" d="M5573 3101l-24 -16c-71,-45 -139,-89 -171,-137 -56,-85 -26,-159 6,-238 25,-60 50,-123 44,-200 -8,-118 -68,-166 -127,-212 -36,-29 -73,-58 -96,-104 -28,-56 -27,-108 -26,-163 0,-43 1,-87 -12,-139 -13,-57 -58,-123 -119,-176 -63,-54 -133,-87 -192,-91 -9,0 -15,-7 -14,-16 0,-8 7,-14 16,-14 66,4 142,40 210,98 66,58 114,128 129,192 13,55 13,104 12,146 0,54 -1,100 24,150 19,39 52,65 87,93 61,48 129,102 139,234 6,84 -22,153 -47,213 -31,78 -56,139 -8,210 28,43 93,85 162,129l7 4 0 37z"/>
      <path class="fil2 str1" d="M5486 3599c-28,-60 -77,-110 -127,-161 -79,-82 -162,-166 -179,-300 -20,-154 21,-258 57,-350 41,-104 76,-194 28,-338 -17,-51 -46,-89 -74,-126 -29,-39 -60,-79 -76,-134 -18,-61 -20,-122 -23,-180 -3,-73 -6,-141 -37,-205 -34,-73 -99,-130 -205,-181 -7,-4 -11,-13 -7,-20 4,-8 13,-11 20,-7 112,53 182,115 220,195 33,70 37,144 40,216 2,57 5,116 21,174 15,50 43,86 72,124 29,38 59,78 78,134 52,155 13,254 -29,359 -36,93 -74,189 -55,335 16,124 95,205 171,283 45,46 89,91 119,144 -4,12 -9,25 -14,38z"/>
      <path class="fil2 str1" d="M3259 3705c56,-155 180,-362 225,-434 121,-197 97,-282 73,-364 -16,-57 -33,-116 2,-204 59,-153 130,-201 211,-256 55,-37 116,-78 184,-159 77,-91 77,-183 76,-280 -1,-107 -1,-218 113,-322 189,-173 307,-156 444,-137 17,2 35,5 54,7 9,1 15,9 14,17 -1,8 -9,14 -17,13 -19,-2 -38,-5 -56,-7 -134,-19 -240,-34 -419,129 -104,95 -103,194 -103,300 1,98 2,200 -83,300 -71,83 -134,126 -189,164 -81,55 -145,98 -201,242 -31,79 -17,128 -1,185 24,84 52,180 -76,388 -116,186 -198,349 -231,455 -7,-12 -14,-24 -20,-37z"/>
      <path class="fil2 str1" d="M3124 2819c63,-76 143,-140 240,-192 81,-43 155,-118 214,-216 71,-117 119,-261 143,-429 26,-182 117,-330 258,-417 83,-50 181,-79 290,-85 115,-6 242,13 375,58 8,3 13,12 10,19 -3,8 -11,13 -19,10 -130,-44 -253,-63 -365,-57 -104,6 -196,33 -275,81 -133,82 -220,222 -244,395 -24,172 -74,321 -147,441 -62,103 -140,181 -225,227 -107,57 -192,129 -255,214l0 -49z"/>
      <path class="fil2 str1" d="M4640 2690c-83,0 -156,-59 -173,-140 -1,-7 3,-14 10,-15 7,-1 14,3 15,10 14,69 77,120 148,120 84,0 152,-67 152,-150 0,-84 -68,-151 -152,-151 -40,0 -77,15 -106,43 -5,5 -13,5 -18,0 -5,-5 -5,-13 0,-18 34,-32 78,-50 124,-50 98,0 177,79 177,176 0,96 -79,175 -177,175z"/>
     </g>
    </g>
   </g>
   <path class="fil2 str1" d="M4884 2967c-6,0 -12,0 -17,0 -25,-1 -39,-4 -123,-28l-40 -11c-56,-16 -67,-19 -87,-23 -37,-7 -74,-10 -112,-10 0,0 0,0 0,0 -8,0 -15,-6 -15,-14 0,-9 7,-15 15,-15 40,0 79,3 117,10 22,4 35,8 90,23l40 12c84,23 95,26 114,26 33,1 68,2 97,-21 34,-28 39,-72 40,-90 0,-8 7,-14 15,-14 8,0 15,7 14,15 0,22 -6,76 -50,112 -32,25 -67,28 -98,28z"/>
   <path class="fil2 str1" d="M5130 2445c-3,0 -7,-2 -10,-4 -6,-6 -6,-15 0,-21 4,-5 7,-10 8,-15 2,-14 -13,-29 -32,-47 -7,-7 -15,-15 -22,-23l0 0c-22,-21 -59,-91 -61,-95 -29,-57 -21,-106 -12,-159 5,-33 11,-66 7,-104 -7,-77 -44,-153 -111,-227 -5,-6 -5,-16 1,-21 6,-6 16,-5 21,1 71,79 111,161 119,244 4,42 -2,77 -8,112 -8,49 -15,92 10,141 32,62 55,88 56,89 0,0 0,0 0,0 7,7 14,14 21,21 22,22 44,43 40,72 -1,11 -7,22 -16,31 -3,3 -7,5 -11,5z"/>
  </g>
  <g id="_2445527836880">
   <path class="fil1 str0" d="M4629 1195c-5,0 -10,-4 -10,-9l-11 -56 -34 -10c-5,-1 -8,-5 -8,-9 0,-5 3,-9 8,-10l34 -10 11 -56c0,-5 5,-9 10,-9 5,0 9,4 10,9l10 56 35 10c4,1 7,5 7,10 0,4 -3,8 -7,9l-35 10 -10 56c-1,5 -5,9 -10,9zm-15 -84l0 0 6 1c4,1 6,4 7,8l2 9 1 -9c1,-4 4,-7 7,-8l7 -1 -7 -2c-3,-1 -6,-4 -7,-8l-1 -8 -2 8c-1,4 -3,7 -7,8l-6 2z"/>
   <path class="fil1 str0" d="M5254 1505c-5,0 -9,-4 -10,-8l-10 -57 -35 -9c-4,-2 -7,-6 -7,-10 0,-5 3,-9 7,-10l35 -10 10 -56c1,-5 5,-8 10,-8 5,0 9,3 10,8l11 56 34 10c5,1 8,5 8,10 0,4 -3,8 -8,10l-34 9 -11 57c-1,4 -5,8 -10,8zm-15 -84l0 0 6 1c4,2 7,5 8,8l1 9 2 -9c0,-3 3,-6 7,-8l6 -1 -6 -2c-4,-1 -7,-4 -7,-8l-2 -8 -1 8c-1,4 -4,7 -8,8l-6 2z"/>
   <path class="fil1 str0" d="M5321 1867c-5,0 -9,-3 -10,-8l-15 -77 -47 -13c-5,-1 -8,-5 -8,-10 0,-4 3,-8 8,-10l47 -13 15 -77c1,-4 5,-8 10,-8 5,0 9,4 10,8l14 77 48 13c4,2 7,6 7,10 0,5 -3,9 -7,10l-48 13 -14 77c-1,5 -5,8 -10,8zm-32 -108l0 0 19 6c4,1 7,4 7,8l6 28 5 -28c1,-4 3,-7 7,-8l19 -6 -19 -5c-4,-1 -6,-4 -7,-8l-5 -29 -6 29c0,4 -3,7 -7,8l-19 5z"/>
   <path class="fil1 str0" d="M3776 1320c-5,0 -10,-3 -10,-8l-15 -76 -47 -14c-5,-1 -8,-5 -8,-10 0,-4 3,-8 8,-9l47 -14 15 -76c0,-5 5,-9 10,-9 5,0 9,4 10,9l14 76 47 14c5,1 8,5 8,9 0,5 -3,9 -8,10l-47 14 -14 76c-1,5 -5,8 -10,8zm-32 -108l0 0 19 6c4,1 7,4 7,8l6 28 5 -28c1,-4 3,-7 7,-8l19 -6 -19 -5c-4,-1 -6,-4 -7,-8l-5 -28 -6 28c0,4 -3,7 -7,8l-19 5z"/>
   <path class="fil1 str0" d="M5400 2145c-5,0 -10,-5 -10,-10 0,-13 -5,-24 -13,-33 -9,-8 -20,-13 -33,-13 0,0 0,0 0,0 -5,0 -10,-4 -10,-10 0,-5 5,-10 10,-10 12,0 24,-5 33,-13 8,-9 13,-20 13,-33 0,-5 5,-10 10,-10 0,0 0,0 0,0 6,0 10,5 10,10 0,26 20,46 46,46 5,0 10,5 10,10 0,6 -5,10 -10,10 -26,0 -46,20 -46,46 0,5 -4,10 -10,10zm-20 -66l0 0c4,3 8,6 11,9 4,3 7,7 9,11 5,-8 12,-15 20,-20 -8,-5 -15,-12 -20,-20 -2,4 -5,8 -9,11 -3,4 -7,7 -11,9z"/>
   <path class="fil1 str0" d="M5047 1221c0,0 0,0 0,0 -6,0 -10,-4 -10,-10 0,-12 -5,-24 -14,-32 -8,-9 -20,-13 -32,-13 0,0 0,0 0,0 -6,0 -10,-5 -10,-10 0,-6 4,-11 10,-11 12,0 24,-4 32,-13 9,-8 14,-20 14,-32 0,-6 4,-10 10,-10 0,0 0,0 0,0 5,0 10,4 10,10 0,25 20,45 45,45 6,0 11,5 11,11 0,5 -5,10 -11,10 -25,0 -45,20 -45,45 0,6 -5,10 -10,10zm-21 -65l0 0c4,2 8,5 12,8 3,4 6,8 9,12 5,-9 12,-15 20,-21 -8,-5 -15,-12 -20,-20 -3,4 -6,8 -9,11 -4,4 -8,7 -12,10z"/>
   <path class="fil1 str0" d="M4852 897c0,0 0,0 0,0 -6,0 -10,-4 -10,-10 0,-7 -3,-14 -8,-18 -5,-5 -12,-8 -19,-8 0,0 0,0 0,0l0 0c-5,0 -10,-5 -10,-10 0,-6 5,-10 10,-10 7,0 14,-3 19,-8 5,-5 8,-12 8,-19 0,-6 4,-10 10,-10 0,0 0,0 0,0 6,0 10,4 10,10 0,15 12,27 27,27 5,0 10,4 10,10 0,5 -5,10 -10,10 -15,0 -27,11 -27,26 0,6 -4,10 -10,10zm-7 -46l0 0c1,1 2,2 4,3 1,1 2,3 3,4 2,-3 5,-5 7,-7 -2,-3 -5,-5 -7,-8 -1,2 -2,3 -3,4 -2,1 -3,3 -4,4z"/>
   <path class="fil1 str0" d="M3457 1337l0 0c-5,0 -10,-5 -10,-10 0,-5 -2,-10 -5,-13 -4,-4 -8,-5 -13,-5 0,0 0,0 0,0 -6,0 -10,-5 -10,-11 0,-5 4,-10 10,-10 5,0 9,-2 13,-5 3,-4 5,-8 5,-13 0,-6 5,-10 10,-10 0,0 0,0 0,0 6,0 11,4 11,10 0,10 8,18 18,18 6,0 10,5 10,10 0,6 -4,11 -10,11 -10,0 -18,8 -18,18 0,5 -5,10 -11,10zm-2 -39l0 0c1,1 1,1 1,1 1,1 1,1 1,1 1,0 2,-1 3,-2 -1,0 -2,-1 -3,-2 0,0 0,1 -1,1 0,1 0,1 -1,1z"/>
   <path class="fil1 str0" d="M3419 1724c0,0 0,0 0,0 -6,0 -10,-5 -10,-10 0,-5 -2,-10 -5,-13 -4,-3 -9,-5 -14,-5 0,0 0,0 0,0 -5,0 -10,-5 -10,-10 0,-6 5,-11 10,-11 5,0 10,-1 14,-5 3,-3 5,-8 5,-13 0,-6 4,-10 10,-10 0,0 0,0 0,0 6,0 10,4 10,10 0,10 8,18 19,18 5,0 10,5 10,11 0,5 -5,10 -10,10 -11,0 -19,8 -19,18 0,5 -4,10 -10,10zm-2 -38l0 0c0,0 1,0 1,1 0,0 1,0 1,1 1,-1 2,-2 2,-3 0,0 -1,-1 -2,-2 0,1 -1,1 -1,1 0,1 -1,1 -1,2z"/>
   <g>
    <path class="fil1 str0" d="M4380 1216c-6,0 -10,-4 -10,-10l0 -23c0,-5 4,-10 10,-10 6,0 10,5 10,10l0 23c0,6 -4,10 -10,10z"/>
    <path class="fil1 str0" d="M4392 1205l-23 0c-6,0 -11,-5 -11,-10 0,-6 5,-10 11,-10l23 0c5,0 10,4 10,10 0,5 -5,10 -10,10z"/>
   </g>
   <g>
    <path class="fil1 str0" d="M4097 1177c-6,0 -10,-5 -10,-10l0 -23c0,-6 4,-10 10,-10 5,0 10,4 10,10l0 23c0,5 -5,10 -10,10z"/>
    <path class="fil1 str0" d="M4108 1166l-23 0c-5,0 -10,-5 -10,-11 0,-5 5,-10 10,-10l23 0c6,0 10,5 10,10 0,6 -4,11 -10,11z"/>
   </g>
   <g>
    <path class="fil1 str0" d="M4464 923c-6,0 -10,-4 -10,-10l0 -41c0,-5 4,-10 10,-10 6,0 10,5 10,10l0 41c0,6 -4,10 -10,10z"/>
    <path class="fil1 str0" d="M4484 903l-41 0c-5,0 -10,-5 -10,-10 0,-6 5,-10 10,-10l41 0c6,0 11,4 11,10 0,5 -5,10 -11,10z"/>
   </g>
   <g>
    <path class="fil1 str0" d="M3317 2013c-6,0 -11,-4 -11,-10l0 -41c0,-5 5,-10 11,-10 5,0 10,5 10,10l0 41c0,6 -5,10 -10,10z"/>
    <path class="fil1 str0" d="M3337 1993l-41 0c-6,0 -10,-5 -10,-10 0,-6 4,-10 10,-10l41 0c6,0 10,4 10,10 0,5 -4,10 -10,10z"/>
   </g>
   <g>
    <path class="fil1 str0" d="M4966 1512c-3,0 -5,-1 -7,-3 -4,-4 -4,-11 0,-15l29 -28c4,-4 10,-4 14,0 4,4 4,10 0,14l-29 29c-2,2 -4,3 -7,3z"/>
    <path class="fil1 str0" d="M4995 1512c-3,0 -5,-1 -7,-3l-29 -29c-4,-4 -4,-10 0,-14 4,-4 10,-4 14,0l29 28c4,4 4,11 0,15 -2,2 -5,3 -7,3z"/>
   </g>
  </g>
  <g id="_2445527864240">
   <path class="fil1 str0" d="M4992 576c-21,13 -91,48 -228,54 -131,5 -213,-53 -216,-56 -2,-1 -4,-3 -4,-6 0,-2 1,-5 3,-7 3,-3 75,-75 225,-66 118,7 222,59 227,61 3,2 4,4 4,7 0,3 -1,6 -4,8 0,1 -2,2 -7,5zm-423 -11l0 0c25,15 96,51 196,47 117,-5 183,-32 209,-46 -32,-15 -115,-48 -204,-53 -112,-6 -178,35 -201,52zm-15 2l0 0 0 0 0 0z"/>
   <path class="fil1 str0" d="M4379 510c-47,29 -104,49 -107,50 -4,1 -7,0 -10,-2 -2,-3 -3,-6 -1,-10 1,-3 37,-85 93,-130 78,-63 139,-78 141,-79 3,0 6,0 8,2 2,2 4,4 3,7 0,3 -5,72 -102,146 -8,6 -16,11 -25,16zm-91 25l0 0c26,-10 73,-31 105,-55 65,-50 85,-97 91,-119 -25,9 -70,31 -118,70 -37,30 -65,78 -78,104z"/>
   <path class="fil1 str0" d="M3280 1211c-2,1 -3,1 -5,1 -4,1 -7,-1 -8,-4 -2,-4 -39,-79 -33,-147 9,-93 42,-146 44,-148 1,-2 4,-4 7,-4 3,-1 5,0 7,2 3,2 51,48 38,162 -7,58 -45,131 -46,134 -1,1 -2,3 -4,4zm7 -276l0 0c-10,20 -28,63 -34,126 -4,44 13,94 23,119 12,-25 30,-70 35,-108 6,-55 -3,-92 -12,-113 -4,-11 -8,-19 -12,-24z"/>
   <path class="fil1 str0" d="M4571 798c-1,1 -3,1 -4,1 -5,1 -117,7 -209,-57 -78,-53 -112,-161 -114,-166 -1,-3 0,-6 3,-9 2,-2 6,-3 9,-3 5,1 112,20 187,77 75,56 130,140 132,144 2,3 2,6 0,9 -1,2 -2,3 -4,4zm-303 -212l0 0c13,31 45,103 102,141 66,45 144,53 179,54 -19,-26 -64,-84 -118,-126 -55,-41 -129,-62 -163,-69z"/>
   <path class="fil1 str0" d="M4029 626c-4,2 -7,2 -10,0 -3,-1 -5,-4 -5,-8 1,-4 10,-115 64,-187 72,-96 185,-156 190,-158 3,-2 6,-2 9,0 3,1 4,4 4,7 0,4 -2,97 -92,215 -45,59 -156,128 -160,131 0,0 0,0 0,0zm226 -325l0 0c-36,21 -111,72 -162,140 -38,51 -53,125 -58,159 33,-22 106,-72 139,-115 65,-85 82,-157 86,-188 -1,1 -3,2 -5,4z"/>
   <g>
    <path class="fil1 str0" d="M3499 912c-4,2 -9,2 -12,-1 -3,-3 -3,-9 0,-13 62,-63 104,-136 138,-199 3,-5 9,-7 13,-5 5,2 7,8 4,12 -35,65 -78,139 -141,204 -1,1 -2,1 -2,2z"/>
    <path class="fil1 str0" d="M3675 693c-21,13 -37,18 -39,18 -4,2 -8,0 -10,-3 -2,-2 -39,-59 20,-155 39,-63 131,-136 135,-139 3,-3 6,-3 10,-2 3,1 5,4 5,8 0,4 -2,115 -50,201 -20,35 -48,58 -71,72zm-36 -2l0 0c18,-7 63,-30 90,-78 34,-61 44,-137 47,-172 -29,24 -86,76 -113,120 -43,69 -31,115 -24,130z"/>
   </g>
   <path class="fil1 str0" d="M3304 1173c-3,2 -6,2 -9,1 -5,-2 -7,-8 -4,-12 85,-157 219,-191 273,-198 5,-1 9,3 10,8 0,5 -4,9 -9,10 -51,7 -177,39 -257,187 -1,2 -3,3 -4,4z"/>
   <path class="fil1 str0" d="M3881 941c-27,17 -110,64 -192,74 -78,10 -129,-33 -131,-35 -3,-2 -4,-7 -2,-10 1,-3 34,-67 147,-76 74,-7 182,24 186,25 4,1 6,4 6,7 1,4 -1,7 -4,9 -1,1 -4,3 -10,6zm-304 29l0 0c14,10 56,34 111,27 70,-9 142,-47 175,-66 -35,-8 -108,-24 -159,-19 -82,7 -116,44 -127,58zm-13 3l0 0 0 0 0 0z"/>
   <path class="fil1 str0" d="M3498 911c-1,1 -3,1 -4,1 -4,1 -7,0 -9,-3 -2,-3 -49,-77 -65,-158 -19,-101 46,-199 49,-203 2,-2 5,-4 8,-4 3,-1 6,1 8,3 2,3 46,69 53,171 4,65 -34,183 -36,187 -1,3 -2,5 -4,6zm-22 -340l0 0c-16,30 -50,103 -37,176 10,54 37,106 52,133 10,-37 31,-113 28,-159 -5,-72 -30,-126 -43,-150z"/>
   <g>
    <path class="fil1 str0" d="M3590 1159c0,1 -1,1 -2,1 -1,1 -31,11 -76,40 -8,5 -16,11 -24,17 -23,16 -49,34 -89,54 -76,37 -147,16 -150,15 -3,0 -5,-2 -6,-5 -1,-2 0,-5 1,-7 2,-3 47,-85 132,-118 115,-44 210,-14 214,-13 3,1 6,5 5,9 0,3 -2,6 -5,7zm-323 112l0 0c22,4 72,9 124,-16 39,-19 63,-36 87,-53 8,-6 16,-11 24,-17 22,-14 40,-24 54,-30 -35,-6 -101,-10 -174,18 -61,24 -101,76 -115,98z"/>
   </g>
   <g>
    <path class="fil1 str0" d="M4360 887c0,0 -1,0 -1,1 -3,1 -71,27 -173,-25 -52,-27 -102,-85 -104,-87 -2,-3 -3,-6 -1,-10 1,-3 5,-5 9,-5 3,-1 94,-6 155,23 85,40 117,88 119,90 1,2 2,5 1,8 -1,2 -3,4 -5,5zm-249 -109l0 0c18,19 52,52 85,69 69,35 120,32 143,27 -14,-15 -47,-46 -104,-74 -40,-18 -95,-21 -124,-22z"/>
    <path class="fil1 str0" d="M3978 814c-4,3 -9,2 -12,-1 -46,-49 -148,-84 -275,-50 -5,1 -10,-2 -11,-6 -1,-5 2,-10 7,-12 135,-36 245,2 294,55 3,4 2,10 -2,13 0,1 -1,1 -1,1z"/>
    <path class="fil1 str0" d="M4103 1082c0,0 0,0 -1,1 -3,1 -6,1 -8,-1 -4,-1 -78,-41 -114,-116 -46,-98 -17,-160 -15,-163 2,-4 6,-6 11,-5 3,0 78,14 123,114 33,73 10,160 9,164 -1,2 -2,5 -5,6zm-124 -264l0 0c-6,18 -15,69 19,139 25,53 72,88 94,102 5,-26 12,-87 -11,-139 -33,-73 -83,-96 -102,-102z"/>
    <path class="fil1 str0" d="M4094 777c-3,2 -8,2 -11,0 -34,-25 -95,-43 -161,-48 -56,-4 -140,-2 -230,34 -5,2 -10,-1 -12,-5 -1,-5 1,-10 6,-12 94,-37 181,-40 239,-35 70,5 133,24 171,51 4,3 4,9 1,13 -1,1 -2,2 -3,2z"/>
   </g>
  </g>
 </g>
</svg>
