<?xml version="1.0" encoding="UTF-8"?>
<!DOCTYPE svg PUBLIC "-//W3C//DTD SVG 1.1//EN" "http://www.w3.org/Graphics/SVG/1.1/DTD/svg11.dtd">
<!-- Creator: CorelDRAW X7 -->
<svg xmlns="http://www.w3.org/2000/svg" xml:space="preserve" width="215.9mm" height="279.4mm" version="1.1" style="shape-rendering:geometricPrecision; text-rendering:geometricPrecision; image-rendering:optimizeQuality; fill-rule:evenodd; clip-rule:evenodd"
viewBox="0 0 21590 27940"
 xmlns:xlink="http://www.w3.org/1999/xlink">
 <defs>
  <style type="text/css">
   <![CDATA[
    .str1 {stroke:black;stroke-width:35.28}
    .str0 {stroke:#D26B54;stroke-width:35.28}
    .fil1 {fill:#D26B54;fill-rule:nonzero}
    .fil0 {fill:#FCE7D9;fill-rule:nonzero}
   ]]>
  </style>
 </defs>
 <g id="Слой_x0020_2">
  <metadata id="CorelCorpID_0Corel-Layer"/>
  <polygon class="fil0" points="13215,15740 8135,15740 8135,10660 13215,10660 "/>
 </g>
 <g id="РЁР_x00b0_СЂ_x0020_1">
  <metadata id="CorelCorpID_1Corel-Layer"/>
  <g id="_2445339795104">
   <path class="fil1 str0" d="M12433 11806c-8,-8 -24,-10 -36,-4 -11,5 -14,16 -6,24 232,237 355,512 355,798l0 1436c0,279 -118,549 -341,782 -8,9 -5,20 7,25 4,2 9,3 14,3 8,0 16,-3 21,-8 229,-239 349,-516 349,-802l0 -1436c0,-293 -126,-575 -363,-818z"/>
   <path class="fil1 str0" d="M8614 14060l0 -1436c0,-286 122,-561 354,-798 8,-8 5,-19 -6,-24 -12,-6 -28,-4 -35,4 -238,243 -364,525 -364,818l0 1436c0,286 121,563 349,802 5,5 13,8 21,8 5,0 10,-1 14,-3 12,-5 15,-16 7,-25 -223,-233 -340,-503 -340,-782z"/>
   <path class="fil1 str0" d="M12487 12624c0,-333 -189,-646 -531,-883 -342,-236 -796,-366 -1276,-366 -481,0 -935,130 -1277,366 -342,237 -531,550 -531,883l0 1436c0,333 189,646 531,882 342,237 796,367 1277,367 480,0 934,-130 1276,-367 342,-236 531,-549 531,-882l0 -1436zm-46 1436l0 0c0,671 -790,1217 -1761,1217 -972,0 -1762,-546 -1762,-1217l0 -1436c0,-672 790,-1218 1762,-1218 971,0 1761,546 1761,1218l0 1436z"/>
  </g>
  <g id="_2445342415392">
   <g>
    <g>
     <g>
      <g>
       <path class="fil1 str0" d="M11554 13582c-8,0 -16,-3 -19,-9 -5,-8 0,-16 11,-19 26,-8 52,-29 77,-50 41,-33 86,-71 143,-54 28,8 44,25 43,46 0,28 -32,62 -67,71 -10,3 -23,-1 -27,-8 -4,-8 1,-17 12,-20 18,-4 39,-26 40,-44 0,-9 -5,-15 -17,-18 -26,-8 -55,13 -94,46 -29,24 -59,48 -94,58 -3,1 -5,1 -8,1z"/>
       <path class="fil1 str0" d="M11602 13584c-41,0 -81,-4 -117,-12 -11,-3 -17,-11 -14,-19 4,-8 16,-12 27,-9 70,16 156,15 231,-5 11,-2 23,2 27,9 4,8 -2,16 -13,19 -44,12 -93,17 -141,17z"/>
       <path class="fil1 str0" d="M11706 13670c-70,0 -123,-49 -151,-76 -7,-6 -12,-12 -16,-14 -8,-5 -8,-15 0,-21 8,-5 22,-6 30,0 5,4 12,10 20,17 25,24 68,64 117,64 1,0 2,0 2,0 22,0 36,-5 42,-14 10,-16 -3,-42 -30,-63 -7,-6 -7,-15 2,-21 8,-5 22,-5 30,1 38,30 53,68 37,94 -7,12 -27,32 -80,33 -1,0 -2,0 -3,0z"/>
      </g>
      <path class="fil1 str0" d="M11672 13382c-12,0 -24,-2 -36,-7 -20,-8 -31,-25 -31,-46 1,-27 20,-53 46,-63 9,-4 21,-2 26,5 5,6 2,14 -7,17 -15,6 -27,24 -27,41 -1,6 1,19 13,24 22,10 57,-6 74,-16 5,-3 13,-7 25,-9 3,0 15,-2 28,2 6,2 14,4 18,9 3,5 4,12 -1,16 -4,3 -10,3 -12,3 -8,1 -11,-2 -19,-3 -4,0 -10,0 -17,4 -4,1 -9,4 -16,7 -19,8 -40,16 -64,16z"/>
      <path class="fil1 str0" d="M11112 12959c-6,0 -12,-2 -16,-6 -7,-7 -5,-17 4,-22 34,-20 159,-42 209,-46 76,-5 141,3 194,22 5,-3 15,-17 15,-35 1,-9 10,-15 21,-15 11,0 20,7 20,16 -1,27 -16,52 -37,62 -11,5 -23,5 -34,1 -47,-18 -106,-24 -176,-20 -50,3 -165,26 -188,40 -3,2 -8,3 -12,3z"/>
      <path class="fil1 str0" d="M11112 12952c-6,0 -13,-2 -17,-7 -6,-7 -3,-16 6,-21 55,-29 134,-61 260,-60 113,0 174,-7 174,-7 11,-1 22,4 24,13 1,8 -6,16 -17,17 -3,1 -65,8 -181,8 -114,-1 -184,27 -238,54 -3,2 -7,3 -11,3z"/>
      <path class="fil1 str0" d="M11175 13118c-10,0 -19,-6 -20,-13 -1,-9 6,-17 17,-18 81,-8 128,-27 169,-43 21,-9 42,-17 63,-22 41,-10 73,1 93,11 23,12 39,29 44,40 3,8 -3,17 -13,20 -11,3 -22,-2 -26,-10 -4,-10 -36,-43 -85,-31 -19,4 -37,11 -57,19 -42,17 -94,38 -182,47 -1,0 -2,0 -3,0z"/>
      <path class="fil1 str0" d="M11435 13173c-13,0 -34,-3 -52,-26 -23,-29 -34,-82 -13,-109 6,-7 18,-10 28,-5 10,4 13,14 7,21 -11,13 -6,53 13,77 6,7 12,12 17,12 3,-1 12,-1 18,-14 14,-26 5,-72 -9,-84 -7,-6 -6,-16 2,-21 8,-6 21,-6 28,1 26,22 35,81 17,116 -11,19 -29,31 -53,32 -1,0 -2,0 -3,0z"/>
      <g>
       <path class="fil1 str1" d="M11446 13057c28,3 30,67 9,68 -23,1 -36,-66 -9,-68z"/>
       <path class="fil1 str0" d="M11454 13133c-20,0 -31,-23 -33,-45 -2,-23 7,-38 24,-39l2 0 1 0c25,3 33,33 31,53 -1,19 -10,31 -24,31 0,0 0,0 -1,0zm-8 -68l0 0c-1,1 -3,4 -4,9 -3,18 6,39 12,43 4,-5 7,-23 1,-39 -2,-7 -6,-12 -9,-13z"/>
      </g>
      <path class="fil1 str0" d="M11484 13055c-7,0 -13,-4 -16,-9 -6,-12 -18,-21 -35,-26 -32,-7 -75,1 -121,25 -8,3 -18,2 -23,-4 -5,-6 -3,-14 5,-18 55,-28 108,-37 149,-27 27,7 47,21 57,41 3,7 -1,14 -10,17 -2,0 -4,1 -6,1z"/>
      <path class="fil1 str0" d="M11418 13176c-63,0 -141,-33 -188,-69 -8,-6 -8,-16 -1,-22 8,-6 21,-6 29,0 53,40 132,66 177,59 15,-3 25,-9 30,-20 4,-8 16,-11 27,-8 10,3 15,12 11,20 -11,20 -31,33 -60,38 -8,1 -16,2 -25,2z"/>
      <path class="fil1 str0" d="M11942 14951c6,-153 -70,-353 -226,-435 -127,-66 -329,-121 -524,-173 -145,-40 -283,-77 -375,-116 -153,-63 -39,-261 36,-392 14,-25 26,-47 35,-65 4,-8 17,-12 29,-9 12,2 18,11 14,19 -9,19 -22,41 -37,66 -65,114 -174,304 -54,355 89,37 225,74 368,112 198,54 403,109 535,178 101,53 159,142 190,207 33,70 52,147 54,221 -15,11 -30,22 -45,32z"/>
      <path class="fil1 str0" d="M10813 15306c20,-206 -141,-315 -298,-420 -107,-73 -209,-141 -238,-236 -49,-159 43,-268 133,-374 48,-58 99,-117 126,-185 54,-138 2,-208 -44,-269 -33,-43 -63,-84 -53,-140 20,-109 148,-155 261,-195 90,-32 175,-63 199,-120 32,-81 -4,-145 -43,-213 -38,-67 -77,-135 -48,-219 41,-119 216,-171 343,-208 48,-14 89,-26 110,-38 153,-88 202,-167 139,-222 -8,-7 -6,-17 4,-22 9,-5 24,-4 31,3 24,21 49,57 29,108 -20,49 -78,102 -175,157 -26,15 -70,28 -121,43 -118,35 -280,82 -316,186 -26,75 9,136 46,200 39,70 81,142 44,233 -29,71 -127,106 -222,140 -113,40 -219,78 -236,171 -9,46 17,81 48,121 47,64 106,142 47,292 -28,72 -80,133 -131,193 -88,105 -172,204 -127,352 26,85 123,150 225,219 156,105 330,222 312,440 -15,1 -30,2 -45,3z"/>
      <path class="fil1 str0" d="M9787 15145c-76,-104 -113,-233 -104,-371 13,-190 114,-362 277,-472 121,-82 94,-263 72,-409 -11,-68 -20,-132 -14,-179 19,-156 161,-230 286,-295 76,-40 147,-77 184,-127 64,-90 70,-172 75,-252 5,-77 11,-156 71,-237 99,-135 245,-160 374,-182 139,-23 258,-44 317,-186 3,-9 16,-13 28,-11 12,2 19,11 15,19 -66,160 -210,185 -349,209 -126,21 -256,43 -345,165 -56,75 -61,148 -66,225 -5,82 -11,168 -80,264 -41,57 -117,96 -197,138 -123,64 -251,131 -269,273 -5,44 4,106 14,172 23,153 52,343 -85,435 -155,105 -251,270 -263,452 -10,149 39,292 134,397 -25,-9 -50,-18 -75,-28z"/>
      <path class="fil1 str0" d="M8872 13190c53,-19 109,-34 165,-49 127,-35 259,-71 350,-148 76,-64 130,-162 182,-256 52,-94 106,-190 181,-256 238,-207 493,-300 826,-300 96,0 273,17 459,65 140,36 325,101 403,204 5,8 1,17 -10,21 -11,4 -24,1 -30,-6 -40,-53 -137,-128 -379,-190 -168,-43 -344,-62 -443,-62 -155,0 -289,20 -411,62 -134,46 -259,120 -380,225 -71,62 -123,157 -174,248 -54,97 -109,197 -189,265 -99,83 -236,121 -369,157 -63,17 -124,34 -181,55l0 -35z"/>
      <path class="fil1 str0" d="M12487 14001l-35 -16c-105,-47 -205,-92 -252,-142 -83,-88 -38,-165 9,-246 36,-62 73,-127 65,-207 -12,-122 -101,-171 -187,-219 -54,-30 -109,-60 -142,-107 -41,-59 -40,-112 -39,-169 0,-44 1,-90 -17,-144 -20,-59 -86,-127 -177,-182 -92,-56 -195,-90 -283,-94 -12,0 -22,-7 -21,-16 1,-9 11,-15 24,-15 97,4 210,41 310,102 98,59 168,132 191,198 19,57 18,107 18,151 -1,56 -2,103 34,155 29,40 78,68 130,97 89,49 190,105 204,241 9,87 -32,158 -69,221 -46,80 -83,143 -12,217 42,44 137,87 239,133l10 4 0 38z"/>
      <path class="fil1 str0" d="M12359 14516c-41,-62 -113,-113 -187,-167 -118,-84 -239,-171 -264,-310 -30,-159 31,-266 84,-361 60,-108 112,-201 41,-350 -25,-53 -67,-92 -109,-130 -43,-40 -88,-81 -112,-139 -27,-63 -30,-125 -34,-186 -5,-75 -9,-146 -54,-212 -51,-75 -148,-135 -303,-187 -12,-4 -16,-13 -11,-21 6,-8 19,-11 30,-7 166,56 268,120 324,201 50,73 54,150 59,225 3,58 7,119 32,179 21,51 62,89 105,128 44,40 88,81 116,139 76,160 19,263 -42,371 -54,96 -110,195 -82,346 24,129 140,212 252,293 67,48 132,94 177,148 -7,14 -14,27 -22,40z"/>
      <path class="fil1 str0" d="M9072 14626c83,-160 266,-375 331,-449 179,-203 144,-291 109,-377 -24,-58 -49,-119 2,-210 88,-158 192,-208 313,-265 80,-38 170,-81 270,-164 115,-95 114,-189 113,-290 -1,-111 -2,-226 166,-333 280,-178 454,-161 656,-141 26,2 53,5 80,7 13,1 21,9 20,17 -1,9 -13,15 -25,14 -28,-2 -55,-5 -82,-7 -198,-20 -354,-35 -618,133 -154,98 -153,201 -152,310 1,102 2,207 -123,310 -104,86 -198,131 -280,170 -119,57 -214,101 -296,250 -45,82 -25,132 -1,191 36,87 76,186 -113,401 -170,193 -291,361 -341,470 -10,-12 -20,-24 -29,-37z"/>
      <path class="fil1 str0" d="M8872 13710c93,-79 212,-145 356,-199 118,-44 227,-121 315,-223 105,-121 175,-270 211,-444 38,-188 173,-341 381,-430 122,-53 266,-83 428,-89 170,-6 356,14 554,60 12,3 18,12 14,20 -4,9 -17,13 -29,10 -192,-45 -372,-65 -537,-59 -154,6 -290,34 -406,84 -197,84 -325,229 -361,408 -36,178 -109,332 -216,456 -92,106 -207,188 -333,235 -157,59 -283,133 -377,221l0 -50z"/>
      <path class="fil1 str0" d="M11111 13576c-123,0 -231,-61 -255,-145 -2,-7 4,-13 14,-15 10,-1 20,3 22,10 21,72 113,124 219,124 123,0 223,-69 223,-155 0,-86 -100,-156 -223,-156 -59,0 -115,16 -157,45 -7,5 -19,5 -26,0 -8,-5 -7,-13 0,-18 49,-34 114,-53 183,-53 144,0 260,82 260,182 0,100 -116,181 -260,181z"/>
     </g>
    </g>
   </g>
   <path class="fil1 str0" d="M11471 13863c-9,0 -18,0 -26,0 -37,-1 -57,-5 -182,-29l-59 -12c-81,-16 -98,-20 -128,-24 -53,-7 -109,-10 -164,-9 0,0 -1,0 -1,0 -12,0 -21,-7 -21,-16 -1,-8 9,-15 21,-15 59,0 117,3 173,10 32,5 51,8 132,25l59 11c125,25 141,28 169,28 48,1 101,1 143,-22 51,-29 58,-75 59,-93 0,-8 11,-15 22,-15 13,0 22,7 22,16 -1,22 -10,79 -75,115 -46,26 -99,30 -144,30z"/>
   <path class="fil1 str0" d="M11834 13323c-5,0 -11,-2 -15,-5 -9,-5 -9,-15 -1,-21 8,-5 12,-11 13,-16 2,-14 -20,-29 -48,-48 -10,-7 -22,-15 -32,-23l1 -1c-34,-21 -88,-94 -90,-98 -44,-59 -32,-110 -19,-164 8,-34 16,-69 11,-108 -11,-79 -66,-158 -164,-235 -8,-6 -7,-16 2,-21 9,-6 23,-6 31,1 104,81 163,166 174,252 6,43 -3,80 -11,116 -12,51 -22,95 15,145 47,65 80,91 82,92 0,0 0,0 0,0 10,8 21,15 31,22 34,23 66,45 60,74 -2,12 -10,23 -24,33 -4,3 -10,5 -16,5z"/>
  </g>
  <path class="fil1 str0" d="M11094 12030c-8,0 -14,-3 -15,-8l-16 -58 -51 -11c-6,-1 -11,-5 -11,-10 0,-4 5,-8 11,-10l51 -10 16 -58c1,-5 7,-9 15,-9 7,0 13,4 14,9l16 58 51 10c6,2 11,6 11,10 0,5 -5,9 -11,10l-51 11 -16 58c-1,5 -7,8 -14,8zm-22 -87l0 0 9 2c5,1 9,4 10,8l3 9 2 -9c1,-4 5,-7 11,-8l9 -2 -9 -1c-6,-2 -10,-5 -11,-9l-2 -8 -3 8c-1,4 -5,7 -10,9l-9 1z"/>
  <path class="fil1 str0" d="M12017 12351c-7,0 -13,-4 -15,-9l-15 -58 -51 -10c-7,-1 -11,-5 -11,-10 0,-5 4,-9 11,-10l51 -10 15 -58c2,-5 8,-9 15,-9 7,0 14,4 15,9l15 58 51 10c7,1 11,5 11,10 0,5 -4,9 -11,10l-51 10 -15 58c-1,5 -8,9 -15,9zm-22 -87l0 0 9 2c6,1 10,4 11,8l2 9 2 -9c1,-4 6,-7 11,-8l9 -2 -9 -2c-5,-1 -10,-4 -11,-8l-2 -9 -2 9c-1,4 -5,7 -11,8l-9 2z"/>
  <path class="fil1 str0" d="M12115 12726c-7,0 -13,-4 -15,-9l-21 -79 -70 -14c-6,-1 -11,-5 -11,-10 0,-5 5,-9 11,-10l70 -14 21 -79c2,-5 8,-9 15,-9 7,0 14,4 15,9l21 79 70 14c7,1 11,5 11,10 0,5 -4,9 -11,10l-70 14 -21 79c-1,5 -8,9 -15,9zm-47 -112l0 0 29 5c5,2 9,5 10,9l8 29 8 -29c1,-4 5,-7 11,-9l28 -5 -28 -6c-6,-1 -10,-4 -11,-8l-8 -29 -8 29c-1,4 -5,7 -10,8l-29 6z"/>
  <path class="fil1 str0" d="M9788 12333c-8,0 -14,-4 -15,-9l-21 -79 -71 -14c-6,-1 -10,-5 -10,-10 0,-5 4,-9 10,-10l71 -14 21 -79c1,-5 7,-9 15,-9 7,0 13,4 14,9l21 79 71 14c6,1 11,5 11,10 0,5 -5,9 -11,10l-71 14 -21 79c-1,5 -7,9 -14,9zm-47 -112l0 0 28 5c6,2 10,5 11,9l8 29 7 -29c1,-4 6,-7 11,-9l28 -5 -28 -6c-5,-1 -10,-4 -11,-8l-7 -29 -8 29c-1,4 -5,7 -11,8l-28 6z"/>
  <path class="fil1 str0" d="M12233 13012c-9,0 -15,-4 -15,-10 0,-13 -7,-24 -20,-33 -13,-9 -30,-14 -48,-14 0,0 0,0 0,0 -8,0 -15,-4 -15,-10 0,-6 7,-11 15,-11 18,0 35,-5 48,-14 13,-8 20,-20 20,-33 0,-6 6,-10 15,-10 0,0 0,0 0,0 8,0 15,4 15,10 0,27 29,47 67,47 8,0 15,5 15,11 0,6 -7,10 -15,10 -38,0 -67,21 -67,47 0,6 -7,10 -15,10zm-31 -67l0 0c6,2 12,5 17,9 5,3 10,7 13,11 8,-8 18,-15 30,-20 -12,-6 -22,-13 -29,-21 -4,4 -9,8 -14,11 -5,4 -11,7 -17,10z"/>
  <path class="fil1 str0" d="M11711 12058c0,0 0,0 0,0 -8,0 -15,-5 -15,-11 0,-13 -7,-24 -20,-33 -13,-9 -30,-14 -48,-14 0,0 0,0 0,0l0 0c-8,0 -15,-4 -15,-10 0,-6 7,-11 15,-11 18,0 35,-5 48,-13 13,-9 20,-21 20,-34 0,-6 6,-10 15,-10 0,0 0,0 0,0 8,0 15,4 15,10 0,27 29,47 67,47 8,0 15,5 15,11 0,6 -7,10 -15,10 -38,0 -67,21 -67,47 0,6 -7,11 -15,11zm-30 -68l0 0c6,2 11,5 16,9 5,4 10,7 14,11 7,-8 18,-15 30,-20 -12,-6 -22,-13 -30,-21 -4,4 -8,8 -14,11 -5,4 -10,7 -16,10z"/>
  <path class="fil1 str0" d="M11424 11723c0,0 0,0 0,0 -9,0 -16,-5 -16,-11 0,-7 -4,-14 -11,-19 -7,-5 -17,-8 -28,-8 0,0 0,0 0,0 -8,0 -15,-5 -15,-10 0,-6 7,-11 15,-11 11,0 21,-3 28,-8 7,-5 11,-12 11,-19 0,-6 7,-11 16,-11 0,0 0,0 0,0 8,0 15,5 15,11 0,15 17,27 39,27 8,0 15,5 15,11 0,5 -7,10 -15,10 -22,0 -39,12 -39,27 0,6 -7,11 -15,11zm-11 -48l0 0c2,1 3,2 5,3 2,1 4,3 5,4 4,-3 7,-5 11,-8 -4,-2 -7,-4 -10,-7 -2,1 -4,3 -6,4 -2,1 -3,2 -5,4z"/>
  <path class="fil1 str0" d="M9365 12177c-8,0 -15,-4 -15,-10 0,-5 -3,-10 -8,-14 -5,-3 -12,-5 -19,-5 0,0 0,0 0,0 -9,0 -15,-5 -15,-11 0,-5 6,-10 15,-10 7,0 14,-2 19,-6 5,-3 8,-8 8,-13 0,-6 7,-11 15,-11 0,0 0,0 0,0 8,0 15,5 15,11 0,11 12,19 27,19 8,0 15,5 15,10 0,6 -7,11 -15,11 -15,0 -27,8 -27,19 0,6 -7,10 -15,10zm-3 -40l0 0c0,1 1,1 1,2 1,0 1,0 2,1 1,-1 2,-2 3,-3 -1,0 -2,-1 -3,-2 -1,0 -1,1 -2,1 0,1 -1,1 -1,1z"/>
  <path class="fil1 str0" d="M9354 12617c0,0 0,0 0,0 -8,0 -15,-4 -15,-10 0,-5 -3,-10 -8,-13 -5,-4 -12,-6 -19,-6 0,0 0,0 0,0 -8,0 -15,-5 -15,-10 0,-6 7,-11 15,-11 7,0 14,-2 19,-5 5,-4 8,-9 8,-14 0,-6 7,-10 15,-10 0,0 0,0 0,0 9,0 15,4 15,10 0,11 12,19 27,19 9,0 15,5 15,11 0,5 -6,10 -15,10 -15,0 -27,8 -27,19 0,6 -6,10 -15,10zm-3 -39l0 0c0,0 1,0 2,1 0,0 1,0 1,1 1,-1 2,-2 3,-2 -1,-1 -2,-2 -3,-3 0,1 -1,1 -1,2 -1,0 -2,0 -2,1z"/>
  <g id="_2445525631280">
   <path class="fil1 str0" d="M10727 12053c-9,0 -15,-5 -15,-11l0 -23c0,-6 6,-11 15,-11 8,0 15,5 15,11l0 23c0,6 -7,11 -15,11z"/>
   <path class="fil1 str0" d="M10744 12041l-34 0c-8,0 -15,-5 -15,-11 0,-5 7,-10 15,-10l34 0c8,0 15,5 15,10 0,6 -7,11 -15,11z"/>
  </g>
  <g id="_2445525631344">
   <path class="fil1 str0" d="M10309 12012c-9,0 -16,-5 -16,-11l0 -23c0,-6 7,-11 16,-11 8,0 15,5 15,11l0 23c0,6 -7,11 -15,11z"/>
   <path class="fil1 str0" d="M10325 12000l-33 0c-9,0 -15,-5 -15,-10 0,-6 6,-11 15,-11l33 0c9,0 16,5 16,11 0,5 -7,10 -16,10z"/>
  </g>
  <g id="_2445525637968">
   <path class="fil1 str0" d="M10851 11750c-9,0 -16,-5 -16,-11l0 -42c0,-6 7,-11 16,-11 8,0 15,5 15,11l0 42c0,6 -7,11 -15,11z"/>
   <path class="fil1 str0" d="M10881 11729l-61 0c-8,0 -15,-5 -15,-11 0,-6 7,-10 15,-10l61 0c8,0 15,4 15,10 0,6 -7,11 -15,11z"/>
  </g>
  <g id="_2445525638192">
   <path class="fil1 str0" d="M9157 12877c-8,0 -15,-5 -15,-11l0 -42c0,-6 7,-11 15,-11 8,0 15,5 15,11l0 42c0,6 -7,11 -15,11z"/>
   <path class="fil1 str0" d="M9187 12856l-60 0c-9,0 -15,-5 -15,-11 0,-6 6,-11 15,-11l60 0c9,0 16,5 16,11 0,6 -7,11 -16,11z"/>
  </g>
  <g id="_2445525638448">
   <path class="fil1 str0" d="M11592 12358c-4,0 -8,-1 -11,-3 -6,-4 -6,-11 0,-15l42 -30c6,-4 16,-4 22,0 6,4 6,11 0,15l-43 30c-3,2 -6,3 -10,3z"/>
   <path class="fil1 str0" d="M11634 12358c-4,0 -8,-1 -11,-3l-42 -30c-6,-4 -6,-11 0,-15 6,-4 15,-4 21,0l43 30c6,4 6,11 0,15 -3,2 -7,3 -11,3z"/>
  </g>
  <g id="_2445341178496">
   <path class="fil1 str0" d="M11630 11391c-31,13 -134,50 -336,55 -194,6 -315,-55 -320,-57 -3,-2 -5,-4 -5,-7 0,-2 2,-5 4,-7 5,-3 110,-77 333,-68 174,7 328,61 334,63 4,2 7,4 7,8 0,3 -2,6 -6,8 -1,0 -4,2 -11,5zm-624 -11l0 0c36,15 141,52 289,47 173,-4 270,-32 309,-47 -48,-15 -171,-49 -302,-54 -165,-7 -263,36 -296,54zm-23 1l0 0 0 0 0 0z"/>
   <path class="fil1 str0" d="M10726 11323c-70,30 -155,50 -159,51 -5,1 -11,0 -14,-2 -4,-3 -5,-7 -2,-10 2,-4 54,-88 137,-135 115,-65 205,-80 209,-81 4,-1 8,0 12,2 3,1 4,4 4,7 0,3 -8,74 -151,150 -11,7 -23,12 -36,18zm-136 25l0 0c39,-11 108,-31 156,-57 95,-51 125,-100 135,-122 -38,9 -104,31 -176,72 -53,30 -95,80 -115,107z"/>
   <path class="fil1 str0" d="M9103 12047c-2,1 -5,1 -7,2 -6,0 -11,-2 -13,-5 -2,-4 -57,-82 -48,-152 13,-96 62,-150 64,-153 3,-2 7,-4 11,-4 4,-1 8,0 11,2 3,2 76,50 56,167 -11,61 -66,136 -68,139 -2,1 -4,3 -6,4zm10 -286l0 0c-15,21 -41,66 -50,132 -5,45 19,96 34,123 17,-26 45,-73 52,-112 9,-57 -4,-96 -17,-118 -7,-11 -13,-19 -19,-25z"/>
   <path class="fil1 str0" d="M11009 11620c-2,1 -4,1 -7,2 -7,0 -171,6 -308,-59 -116,-56 -165,-167 -167,-172 -2,-3 -1,-7 3,-9 4,-3 9,-4 14,-4 6,1 165,21 276,79 111,59 191,146 195,150 2,3 2,6 0,9 -2,2 -4,3 -6,4zm-447 -219l0 0c18,32 66,106 149,146 98,47 213,55 265,56 -28,-28 -94,-88 -175,-131 -80,-42 -190,-63 -239,-71z"/>
   <path class="fil1 str0" d="M10208 11442c-5,2 -10,2 -15,1 -4,-2 -6,-5 -6,-9 0,-4 13,-119 94,-193 107,-99 273,-161 280,-164 4,-1 9,-1 13,0 4,2 7,4 7,8 0,4 -3,100 -136,221 -67,62 -230,133 -237,136 0,0 0,0 0,0zm334 -336l0 0c-52,22 -163,75 -239,145 -57,52 -78,129 -85,165 48,-23 156,-75 205,-120 95,-87 121,-162 127,-193 -2,1 -5,2 -8,3z"/>
   <g>
    <path class="fil1 str0" d="M9426 11738c-6,2 -12,2 -17,-1 -6,-3 -6,-9 0,-13 91,-65 153,-141 204,-206 4,-5 12,-7 19,-5 7,2 9,8 6,12 -52,67 -116,144 -209,211 -1,1 -2,1 -3,2z"/>
    <path class="fil1 str0" d="M9686 11511c-31,14 -55,19 -57,19 -6,2 -13,0 -16,-3 -2,-2 -56,-61 31,-160 56,-65 192,-141 198,-144 4,-3 10,-3 15,-2 5,1 8,5 7,8 0,5 -2,119 -73,208 -29,36 -71,60 -105,74zm-53 -1l0 0c26,-8 93,-31 133,-81 50,-63 65,-142 69,-178 -42,25 -127,79 -167,124 -63,72 -45,118 -35,135z"/>
   </g>
   <path class="fil1 str0" d="M9138 12008c-4,1 -9,2 -13,0 -7,-2 -10,-7 -6,-12 126,-161 324,-197 403,-204 7,-1 14,3 15,8 0,5 -6,10 -14,11 -74,7 -260,40 -379,193 -2,1 -4,3 -6,4z"/>
   <path class="fil1 str0" d="M9991 11768c-41,18 -163,66 -285,77 -114,10 -190,-35 -193,-36 -5,-3 -6,-7 -3,-11 2,-3 51,-69 218,-79 108,-7 268,25 274,26 5,1 9,4 9,8 1,3 -2,7 -6,9 -1,0 -6,3 -14,6zm-450 30l0 0c22,11 83,35 164,28 103,-9 210,-48 258,-68 -51,-9 -158,-25 -235,-20 -120,7 -171,45 -187,60zm-18 3l0 0 0 0 0 0z"/>
   <path class="fil1 str0" d="M9424 11737c-1,1 -3,1 -5,1 -6,1 -11,0 -14,-4 -3,-3 -72,-79 -95,-162 -28,-104 68,-206 72,-210 2,-3 7,-5 12,-5 5,0 9,1 11,4 3,3 68,71 79,177 6,67 -51,188 -53,193 -1,3 -4,5 -7,6zm-31 -351l0 0c-25,31 -75,106 -55,181 15,56 54,110 76,138 16,-38 46,-117 42,-164 -8,-75 -44,-131 -63,-155z"/>
   <g>
    <path class="fil1 str0" d="M9561 11994c-1,0 -2,1 -3,1 -1,0 -46,10 -112,41 -12,5 -24,11 -36,17 -34,17 -73,36 -132,56 -112,38 -217,17 -221,16 -4,-1 -7,-3 -8,-5 -2,-2 -1,-5 1,-8 2,-3 70,-87 194,-121 170,-46 310,-15 316,-14 5,1 9,5 8,9 0,3 -3,6 -7,8zm-477 116l0 0c32,4 106,8 183,-18 57,-19 93,-37 128,-54 12,-6 24,-12 36,-17 32,-15 59,-25 79,-32 -51,-6 -148,-10 -257,19 -89,24 -148,79 -169,102z"/>
   </g>
   <g>
    <path class="fil1 str0" d="M10698 11712c-1,0 -2,1 -3,1 -4,1 -105,28 -254,-26 -77,-27 -151,-87 -154,-90 -4,-2 -4,-6 -2,-10 3,-3 8,-5 13,-6 6,0 139,-5 229,25 125,41 174,91 176,93 2,2 3,5 1,8 -1,2 -3,4 -6,5zm-369 -112l0 0c27,19 77,53 127,71 100,36 176,33 210,28 -20,-16 -69,-48 -153,-76 -59,-20 -140,-23 -184,-23z"/>
    <path class="fil1 str0" d="M10133 11637c-6,2 -13,2 -18,-1 -67,-51 -218,-87 -405,-52 -8,1 -15,-2 -17,-7 -1,-5 4,-10 11,-11 199,-37 361,1 433,57 5,3 4,9 -2,13 0,0 -1,1 -2,1z"/>
    <path class="fil1 str0" d="M10318 11914c0,0 -1,0 -1,0 -5,2 -9,2 -13,0 -5,-2 -115,-43 -167,-120 -69,-102 -25,-166 -23,-168 3,-5 9,-7 16,-6 5,0 116,15 182,118 48,75 15,166 13,169 -1,3 -3,5 -7,7zm-183 -273l0 0c-9,19 -22,71 28,144 37,54 107,91 139,105 7,-27 18,-90 -16,-144 -49,-75 -122,-99 -151,-105z"/>
    <path class="fil1 str0" d="M10305 11599c-5,2 -12,2 -16,0 -51,-26 -141,-45 -239,-50 -81,-5 -206,-2 -338,34 -8,3 -16,0 -18,-4 -3,-5 1,-11 9,-13 137,-38 267,-41 352,-36 103,6 197,25 252,53 6,3 7,9 1,13 -1,1 -2,2 -3,3z"/>
   </g>
  </g>
 </g>
</svg>
