<?xml version="1.0" encoding="UTF-8"?>
<!DOCTYPE svg PUBLIC "-//W3C//DTD SVG 1.1//EN" "http://www.w3.org/Graphics/SVG/1.1/DTD/svg11.dtd">
<!-- Creator: CorelDRAW X7 -->
<svg xmlns="http://www.w3.org/2000/svg" xml:space="preserve" width="215.9mm" height="279.4mm" version="1.1" style="shape-rendering:geometricPrecision; text-rendering:geometricPrecision; image-rendering:optimizeQuality; fill-rule:evenodd; clip-rule:evenodd"
viewBox="0 0 21590 27940"
 xmlns:xlink="http://www.w3.org/1999/xlink">
 <defs>
  <style type="text/css">
   <![CDATA[
    .str1 {stroke:black;stroke-width:35.28}
    .str0 {stroke:#D26B54;stroke-width:35.28}
    .fil1 {fill:#D26B54;fill-rule:nonzero}
    .fil0 {fill:#FCE7D9;fill-rule:nonzero}
   ]]>
  </style>
 </defs>
 <g id="Слой_x0020_2">
  <metadata id="CorelCorpID_0Corel-Layer"/>
  <polygon class="fil0" points="5184,5220 104,5220 104,140 5184,140 "/>
 </g>
 <g id="РЁР_x00b0_СЂ_x0020_1">
  <metadata id="CorelCorpID_1Corel-Layer"/>
  <g id="_2445341301920">
   <path class="fil1 str0" d="M4402 1287c-8,-8 -24,-11 -35,-5 -12,5 -15,16 -7,25 232,236 355,512 355,797l0 1437c0,278 -118,549 -341,782 -7,8 -4,19 8,24 4,2 9,3 14,3 8,0 16,-3 21,-8 228,-239 349,-516 349,-801l0 -1437c0,-292 -126,-575 -364,-817z"/>
   <path class="fil1 str0" d="M583 3541l0 -1437c0,-285 123,-561 355,-797 8,-9 5,-20 -7,-25 -11,-6 -27,-3 -35,5 -238,242 -364,525 -364,817l0 1437c0,285 121,562 349,801 5,5 13,8 21,8 5,0 10,-1 14,-3 12,-5 15,-16 7,-24 -222,-233 -340,-504 -340,-782z"/>
   <path class="fil1 str0" d="M4456 2104c0,-332 -188,-646 -531,-882 -342,-237 -795,-367 -1276,-367 -481,0 -934,130 -1277,367 -342,236 -531,550 -531,882l0 1437c0,332 189,645 531,882 343,236 796,367 1277,367 481,0 934,-131 1276,-367 343,-237 531,-550 531,-882l0 -1437zm-45 1437l0 0c0,671 -791,1217 -1762,1217 -972,0 -1762,-546 -1762,-1217l0 -1437c0,-671 790,-1217 1762,-1217 971,0 1762,546 1762,1217l0 1437z"/>
  </g>
  <g id="_2445347560512">
   <g>
    <g>
     <g>
      <g>
       <path class="fil1 str0" d="M3524 3062c-9,0 -17,-3 -20,-9 -4,-8 1,-16 12,-19 25,-7 51,-29 77,-50 40,-33 86,-71 143,-54 27,8 43,25 43,46 -1,29 -32,62 -67,71 -11,3 -23,-1 -27,-8 -5,-8 1,-16 12,-19 17,-5 39,-26 39,-44 0,-10 -5,-15 -17,-19 -26,-7 -54,14 -94,46 -29,24 -58,48 -94,58 -2,1 -5,1 -7,1z"/>
       <path class="fil1 str0" d="M3571 3065c-40,0 -81,-4 -117,-13 -11,-3 -17,-11 -13,-19 3,-8 16,-12 27,-9 69,16 156,15 230,-4 11,-3 23,1 27,9 4,7 -1,16 -12,18 -45,12 -94,18 -142,18z"/>
       <path class="fil1 str0" d="M3676 3150c-71,0 -123,-49 -152,-76 -6,-6 -12,-11 -15,-13 -9,-6 -9,-15 -1,-21 9,-6 22,-6 30,-1 6,4 12,10 20,18 26,24 68,64 118,64 0,0 1,0 2,0 22,-1 36,-6 41,-15 10,-16 -2,-42 -29,-62 -8,-6 -7,-16 1,-21 9,-6 22,-5 30,1 39,29 54,67 37,93 -7,12 -27,32 -79,33 -1,0 -2,0 -3,0z"/>
      </g>
      <path class="fil1 str0" d="M3642 2862c-13,0 -25,-2 -36,-7 -20,-8 -32,-25 -31,-46 0,-26 19,-52 46,-63 9,-3 20,-1 25,5 5,6 2,14 -7,18 -15,6 -27,24 -27,41 0,5 1,18 13,23 23,10 58,-5 75,-16 4,-2 12,-6 24,-8 4,-1 15,-2 28,1 7,2 15,4 19,10 3,4 4,11 -2,15 -4,3 -10,3 -12,3 -8,1 -11,-2 -18,-3 -4,0 -10,0 -18,4 -3,2 -9,4 -16,7 -19,8 -39,16 -63,16z"/>
      <path class="fil1 str0" d="M3081 2439c-6,0 -12,-2 -16,-6 -6,-7 -5,-16 4,-22 34,-19 159,-42 209,-45 76,-5 141,2 194,22 6,-4 15,-18 16,-36 0,-8 9,-15 21,-15 11,0 19,7 19,16 -1,27 -16,52 -37,62 -11,5 -23,5 -34,1 -47,-17 -106,-24 -175,-20 -51,4 -166,27 -188,40 -4,2 -8,3 -13,3z"/>
      <path class="fil1 str0" d="M3081 2432c-6,0 -12,-2 -16,-7 -7,-7 -4,-16 5,-21 55,-28 135,-61 261,-60 112,1 173,-7 174,-7 11,-1 21,5 23,13 2,8 -6,16 -17,18 -2,0 -65,7 -181,7 -114,-1 -184,27 -237,55 -4,1 -8,2 -12,2z"/>
      <path class="fil1 str0" d="M3144 2598c-10,0 -18,-5 -20,-13 -1,-9 7,-16 18,-18 81,-8 127,-26 169,-43 21,-8 41,-16 63,-22 41,-9 73,1 93,11 23,12 38,29 43,41 4,8 -2,16 -13,19 -10,3 -22,-2 -25,-10 -5,-10 -37,-43 -86,-31 -19,4 -36,11 -57,20 -42,16 -94,37 -182,46 -1,0 -2,0 -3,0z"/>
      <path class="fil1 str0" d="M3404 2654c-12,0 -33,-4 -51,-27 -24,-29 -34,-82 -13,-109 5,-7 18,-9 27,-5 10,4 13,14 7,21 -10,14 -6,54 13,77 6,8 13,12 17,12 4,0 12,-1 19,-14 14,-26 4,-72 -9,-83 -8,-7 -7,-16 1,-22 8,-6 21,-5 29,1 26,22 34,82 16,116 -10,20 -29,31 -53,33 -1,0 -2,0 -3,0z"/>
      <g>
       <path class="fil1 str1" d="M3416 2537c27,3 29,68 8,68 -22,1 -36,-66 -8,-68z"/>
       <path class="fil1 str0" d="M3424 2613c-20,0 -32,-23 -34,-44 -2,-24 7,-39 25,-40l1 0 1 0c26,3 33,34 32,53 -2,20 -10,31 -24,31 0,0 -1,0 -1,0zm-8 -68l0 0c-2,1 -4,5 -5,10 -3,17 6,38 12,42 4,-5 7,-23 2,-39 -3,-7 -6,-11 -9,-13z"/>
      </g>
      <path class="fil1 str0" d="M3454 2535c-7,0 -14,-3 -16,-9 -6,-12 -19,-21 -36,-25 -31,-8 -74,0 -120,24 -8,4 -19,2 -24,-4 -5,-6 -3,-14 5,-18 55,-27 108,-37 150,-27 26,7 46,22 56,41 3,7 -1,14 -10,17 -2,1 -4,1 -5,1z"/>
      <path class="fil1 str0" d="M3388 2656c-63,0 -141,-33 -189,-69 -8,-6 -8,-15 0,-22 8,-6 20,-6 28,0 53,40 133,66 177,59 15,-2 25,-9 31,-19 4,-8 16,-12 26,-9 10,3 15,12 11,20 -10,20 -31,34 -60,38 -7,2 -16,2 -24,2z"/>
      <path class="fil1 str0" d="M3911 4431c6,-152 -69,-353 -225,-434 -127,-67 -329,-121 -525,-174 -145,-39 -282,-76 -375,-115 -152,-64 -39,-262 36,-393 14,-25 27,-47 36,-65 4,-8 17,-12 28,-9 12,3 18,12 14,20 -9,18 -22,40 -36,66 -65,113 -175,304 -55,354 90,37 225,74 368,113 199,53 404,109 536,178 100,52 158,141 189,207 34,70 52,147 54,221 -14,10 -29,21 -45,31z"/>
      <path class="fil1 str0" d="M2783 4786c19,-206 -142,-315 -298,-420 -108,-73 -209,-141 -238,-236 -49,-159 43,-268 132,-374 49,-57 99,-117 126,-185 54,-138 2,-208 -44,-269 -32,-43 -63,-84 -52,-139 20,-110 147,-155 260,-196 90,-32 176,-62 199,-120 33,-81 -4,-145 -43,-213 -37,-66 -77,-135 -47,-219 41,-119 215,-170 342,-208 48,-14 89,-26 110,-38 153,-87 202,-166 139,-222 -7,-6 -6,-16 4,-22 10,-5 24,-4 32,3 24,21 48,57 28,108 -19,49 -78,102 -174,157 -26,15 -70,28 -121,43 -119,35 -281,83 -317,186 -25,75 9,136 46,200 40,70 81,142 44,233 -28,71 -126,106 -221,140 -113,40 -220,79 -237,172 -8,45 18,80 48,120 47,64 106,143 47,293 -28,71 -80,133 -130,192 -89,105 -173,205 -127,352 26,85 122,150 225,219 155,105 330,223 312,440 -15,1 -30,2 -45,3z"/>
      <path class="fil1 str0" d="M1757 4626c-76,-105 -114,-234 -104,-371 12,-191 113,-363 277,-473 121,-81 93,-263 71,-409 -10,-68 -20,-132 -14,-178 19,-157 162,-231 287,-296 75,-39 147,-77 183,-127 65,-90 70,-172 76,-252 5,-76 10,-156 70,-237 99,-135 245,-160 374,-181 139,-24 259,-44 317,-187 4,-8 16,-13 28,-11 12,3 19,11 16,20 -66,160 -210,184 -350,208 -125,21 -255,43 -345,165 -55,76 -60,148 -65,225 -6,83 -12,168 -81,264 -41,57 -116,96 -196,138 -124,64 -252,131 -269,273 -6,44 4,107 14,173 23,152 52,342 -85,435 -155,104 -251,269 -263,451 -10,149 39,292 133,398 -25,-9 -50,-19 -74,-28z"/>
      <path class="fil1 str0" d="M841 2670c54,-19 110,-34 165,-49 128,-35 259,-71 351,-148 75,-64 129,-161 182,-256 52,-93 105,-190 181,-256 237,-207 492,-299 825,-299 96,0 274,16 459,64 141,36 325,101 403,204 6,8 1,17 -9,21 -11,4 -25,2 -31,-6 -39,-52 -137,-128 -378,-190 -169,-43 -344,-62 -444,-62 -154,0 -288,20 -410,62 -135,46 -259,120 -380,226 -71,62 -124,156 -174,248 -54,96 -110,196 -190,264 -99,83 -236,121 -368,157 -63,17 -125,34 -182,56l0 -36z"/>
      <path class="fil1 str0" d="M4456 3481l-34 -16c-106,-47 -205,-92 -253,-142 -83,-87 -38,-164 9,-246 36,-62 74,-127 66,-207 -13,-122 -102,-171 -188,-219 -53,-29 -109,-60 -142,-107 -41,-58 -40,-112 -39,-169 1,-44 2,-90 -17,-143 -20,-60 -86,-128 -176,-182 -93,-56 -196,-91 -284,-94 -12,-1 -21,-8 -21,-17 1,-8 12,-15 24,-15 98,5 211,42 310,102 99,60 168,132 191,198 20,58 19,108 18,152 -1,55 -2,103 34,154 29,41 78,68 130,97 89,49 191,105 204,241 9,87 -32,158 -68,221 -47,80 -83,143 -13,217 42,44 138,87 239,133l10 5 0 37z"/>
      <path class="fil1 str0" d="M4329 3996c-42,-62 -113,-113 -188,-166 -117,-85 -238,-172 -264,-311 -29,-159 31,-266 84,-361 61,-107 113,-200 42,-350 -26,-53 -68,-92 -109,-130 -44,-40 -89,-81 -113,-138 -26,-64 -30,-126 -34,-187 -4,-75 -9,-145 -54,-212 -51,-75 -147,-134 -303,-187 -11,-4 -16,-13 -10,-21 5,-7 18,-11 30,-7 165,56 268,120 324,202 49,72 54,149 58,224 4,59 8,119 32,179 22,52 63,89 106,129 43,39 88,80 115,138 76,161 19,263 -42,372 -54,95 -109,194 -81,345 23,129 139,212 251,293 67,48 132,94 177,149 -7,13 -14,26 -21,39z"/>
      <path class="fil1 str0" d="M1041 4106c83,-160 267,-375 332,-449 179,-203 143,-291 108,-376 -24,-59 -48,-120 3,-211 87,-158 191,-207 312,-265 80,-38 171,-81 271,-164 114,-94 113,-189 112,-289 -1,-112 -2,-226 167,-334 279,-178 453,-161 655,-141 26,2 53,5 81,7 12,1 21,9 19,18 -1,8 -12,14 -25,13 -28,-2 -55,-5 -81,-7 -198,-19 -355,-35 -619,133 -154,98 -153,201 -152,310 1,102 2,207 -123,310 -104,87 -197,131 -279,170 -120,57 -214,102 -297,250 -45,82 -24,133 0,191 35,88 75,187 -114,401 -170,194 -291,361 -341,471 -10,-13 -19,-25 -29,-38z"/>
      <path class="fil1 str0" d="M841 3190c94,-78 213,-145 356,-199 119,-44 228,-121 316,-223 104,-120 175,-270 210,-444 38,-188 174,-341 381,-430 123,-53 267,-83 428,-89 170,-6 357,14 554,61 12,3 18,11 14,20 -4,8 -16,12 -28,9 -192,-45 -373,-65 -538,-58 -153,5 -290,34 -406,83 -196,85 -324,230 -360,409 -36,178 -109,331 -217,456 -92,106 -207,187 -333,234 -157,59 -283,133 -377,221l0 -50z"/>
      <path class="fil1 str0" d="M3080 3057c-123,0 -230,-61 -255,-145 -2,-7 4,-14 14,-16 11,-1 20,3 22,10 22,72 114,125 219,125 123,0 224,-70 224,-156 0,-86 -101,-156 -224,-156 -59,0 -114,16 -157,45 -7,5 -19,5 -26,0 -7,-5 -7,-13 0,-18 49,-34 114,-52 183,-52 144,0 261,81 261,181 0,100 -117,182 -261,182z"/>
     </g>
    </g>
   </g>
   <path class="fil1 str0" d="M3440 3343c-9,0 -17,0 -25,0 -37,-1 -57,-4 -182,-29l-59 -12c-82,-16 -99,-19 -129,-23 -53,-7 -108,-11 -164,-10 0,0 0,0 0,0 -12,0 -22,-7 -22,-15 0,-9 10,-16 22,-16 58,0 116,3 172,11 32,4 51,8 133,24l59 12c124,24 140,27 168,27 49,1 101,2 144,-22 50,-29 58,-74 58,-93 1,-8 11,-14 23,-15 12,1 21,8 21,16 -1,23 -10,79 -75,116 -46,26 -98,29 -144,29z"/>
   <path class="fil1 str0" d="M3804 2803c-6,0 -11,-2 -16,-4 -8,-6 -9,-16 0,-22 7,-5 11,-10 12,-15 3,-15 -19,-30 -47,-49 -11,-7 -22,-15 -33,-23l1 -1c-33,-21 -87,-94 -90,-97 -43,-59 -31,-111 -19,-165 8,-34 16,-69 11,-108 -10,-79 -65,-158 -164,-235 -8,-6 -7,-16 2,-21 9,-6 23,-5 31,1 105,82 164,167 175,253 6,42 -3,79 -11,115 -12,51 -23,96 14,146 47,64 81,90 82,91 0,0 0,0 0,0 11,8 21,16 31,22 34,23 66,45 60,75 -2,11 -10,22 -24,32 -4,3 -10,5 -15,5z"/>
  </g>
  <path class="fil1 str0" d="M3063 1511c-7,0 -13,-4 -15,-9l-15 -58 -51 -10c-7,-2 -11,-6 -11,-10 0,-5 4,-9 11,-10l51 -11 15 -58c2,-5 8,-8 15,-8 7,0 14,3 15,8l15 58 51 11c7,1 11,5 11,10 0,4 -4,8 -11,10l-51 10 -15 58c-1,5 -8,9 -15,9zm-22 -87l0 0 9 1c6,2 10,5 11,9l2 8 2 -8c1,-4 5,-7 11,-9l9 -1 -9 -2c-6,-1 -10,-4 -11,-8l-2 -9 -2 9c-1,4 -5,7 -11,8l-9 2z"/>
  <path class="fil1 str0" d="M3987 1831c-8,0 -14,-3 -15,-8l-16 -58 -51 -11c-6,-1 -11,-5 -11,-10 0,-4 5,-9 11,-10l51 -10 16 -58c1,-5 7,-9 15,-9 7,0 13,4 14,9l16 58 51 10c6,1 11,6 11,10 0,5 -5,9 -11,10l-51 11 -16 58c-1,5 -7,8 -14,8zm-22 -87l0 0 9 2c5,1 9,4 10,8l3 9 2 -9c1,-4 5,-7 10,-8l10 -2 -10 -2c-5,-1 -9,-4 -10,-8l-2 -8 -3 8c-1,4 -5,7 -10,8l-9 2z"/>
  <path class="fil1 str0" d="M4085 2206c-8,0 -14,-4 -15,-9l-21 -79 -71 -14c-6,-1 -10,-5 -10,-10 0,-5 4,-9 10,-10l71 -14 21 -79c1,-5 7,-9 15,-9 7,0 13,4 14,9l21 79 71 14c6,1 11,5 11,10 0,5 -5,9 -11,10l-71 14 -21 79c-1,5 -7,9 -14,9zm-47 -112l0 0 28 6c6,1 10,4 11,8l8 29 7 -29c1,-4 6,-7 11,-8l28 -6 -28 -6c-5,-1 -10,-4 -11,-8l-7 -29 -8 29c-1,4 -5,7 -11,8l-28 6z"/>
  <path class="fil1 str0" d="M1757 1813c-7,0 -14,-4 -15,-9l-21 -79 -70 -14c-7,-1 -11,-5 -11,-10 0,-5 4,-9 11,-10l70 -14 21 -79c1,-5 8,-9 15,-9 7,0 14,4 15,9l21 79 70 14c7,1 11,5 11,10 0,5 -4,9 -11,10l-70 14 -21 79c-1,5 -8,9 -15,9zm-47 -112l0 0 29 6c5,1 9,4 10,8l8 29 8 -29c1,-4 5,-7 10,-8l29 -6 -29 -6c-5,-1 -9,-4 -10,-8l-8 -29 -8 29c-1,4 -5,7 -10,8l-29 6z"/>
  <path class="fil1 str0" d="M4202 2493c-8,0 -15,-5 -15,-11 0,-12 -7,-24 -20,-33 -12,-9 -29,-13 -48,-13 0,0 0,0 0,0 -8,0 -15,-5 -15,-11 0,-6 7,-10 15,-10 18,0 35,-5 48,-14 13,-9 20,-21 20,-34 0,-5 7,-10 15,-10 0,0 0,0 0,0 8,0 15,5 15,10 0,27 30,48 67,48 8,0 15,4 15,10 0,6 -7,11 -15,11 -37,0 -67,20 -67,46 0,6 -7,11 -15,11zm-30 -68l0 0c6,3 11,6 16,9 6,4 10,8 14,12 7,-9 18,-16 30,-21 -12,-6 -22,-13 -30,-21 -4,4 -8,8 -13,12 -6,3 -11,6 -17,9z"/>
  <path class="fil1 str0" d="M3680 1538c0,0 0,0 0,0 -8,0 -15,-5 -15,-11 0,-12 -7,-24 -20,-33 -12,-9 -29,-13 -47,-13 0,0 0,0 0,0l0 0c-9,0 -16,-5 -16,-11 0,-6 7,-10 16,-10 18,0 35,-5 47,-14 13,-9 20,-21 20,-33 0,-6 7,-11 15,-11 0,0 0,0 0,0 9,0 15,5 15,10 0,27 30,48 67,48 9,0 15,4 15,10 0,6 -6,11 -15,11 -37,0 -67,20 -67,46 0,6 -6,11 -15,11zm-30 -68l0 0c6,3 12,6 17,9 5,4 9,8 13,12 8,-9 18,-16 30,-21 -12,-5 -22,-13 -30,-21 -4,4 -8,8 -13,12 -5,3 -11,6 -17,9z"/>
  <path class="fil1 str0" d="M3393 1203c0,0 0,0 0,0 -8,0 -15,-5 -15,-10 0,-8 -4,-15 -12,-20 -7,-5 -17,-8 -28,-8 0,0 0,0 0,0 -8,0 -15,-4 -15,-10 0,-6 7,-11 15,-11 11,0 21,-2 28,-8 8,-5 12,-12 12,-19 0,-6 7,-11 15,-11 0,0 0,0 0,0 8,0 15,5 15,11 0,15 17,27 39,27 8,0 15,5 15,11 0,6 -7,10 -15,10 -22,0 -39,12 -39,28 0,5 -7,10 -15,10zm-11 -48l0 0c2,1 4,2 6,3 1,2 3,3 5,4 3,-3 7,-5 11,-7 -4,-3 -8,-5 -11,-8 -2,2 -3,3 -5,4 -2,2 -4,3 -6,4z"/>
  <path class="fil1 str0" d="M1334 1658c-8,0 -15,-5 -15,-11 0,-5 -3,-10 -8,-13 -5,-4 -12,-6 -19,-6 0,0 0,0 0,0 -8,0 -15,-4 -15,-10 0,-6 7,-11 15,-11 7,0 14,-2 19,-5 5,-4 8,-9 8,-14 0,-6 7,-10 15,-10 0,0 0,0 0,0 9,0 15,4 15,10 0,11 12,19 27,19 9,0 15,5 15,11 0,6 -6,10 -15,10 -15,0 -27,8 -27,19 0,6 -6,11 -15,11zm-3 -40l0 0c1,0 1,0 2,1 0,0 1,1 1,1 1,-1 2,-2 4,-2 -2,-1 -3,-2 -4,-3 0,1 -1,1 -1,2 -1,0 -1,0 -2,1z"/>
  <path class="fil1 str0" d="M1324 2098c0,0 0,0 0,0 -9,0 -15,-5 -15,-11 0,-5 -3,-10 -8,-13 -5,-4 -12,-6 -20,-6 0,0 0,0 0,0 -8,0 -15,-4 -15,-10 0,-6 7,-11 15,-11 8,0 15,-2 20,-5 5,-4 8,-8 8,-14 0,-5 6,-10 15,-10 0,0 0,0 0,0 8,0 15,5 15,10 0,11 12,19 27,19 8,0 15,5 15,11 0,6 -7,10 -15,10 -15,0 -27,9 -27,19 0,6 -7,11 -15,11zm-4 -40l0 0c1,0 1,1 2,1 0,0 1,1 2,1 1,-1 2,-1 3,-2 -1,-1 -2,-2 -3,-2 -1,0 -1,0 -2,1 -1,0 -1,1 -2,1z"/>
  <g id="_2445527844880">
   <path class="fil1 str0" d="M2696 1533c-8,0 -15,-5 -15,-11l0 -23c0,-6 7,-11 15,-11 9,0 15,5 15,11l0 23c0,6 -6,11 -15,11z"/>
   <path class="fil1 str0" d="M2713 1521l-34 0c-8,0 -15,-4 -15,-10 0,-6 7,-11 15,-11l34 0c8,0 15,5 15,11 0,6 -7,10 -15,10z"/>
  </g>
  <g id="_2445527843440">
   <path class="fil1 str0" d="M2278 1492c-8,0 -15,-5 -15,-10l0 -24c0,-6 7,-10 15,-10 8,0 15,4 15,10l0 24c0,5 -7,10 -15,10z"/>
   <path class="fil1 str0" d="M2295 1480l-34 0c-8,0 -15,-4 -15,-10 0,-6 7,-11 15,-11l34 0c8,0 15,5 15,11 0,6 -7,10 -15,10z"/>
  </g>
  <g id="_2445527843152">
   <path class="fil1 str0" d="M2820 1230c-8,0 -15,-5 -15,-11l0 -42c0,-6 7,-10 15,-10 8,0 15,4 15,10l0 42c0,6 -7,11 -15,11z"/>
   <path class="fil1 str0" d="M2850 1209l-60 0c-9,0 -15,-5 -15,-11 0,-5 6,-10 15,-10l60 0c9,0 15,5 15,10 0,6 -6,11 -15,11z"/>
  </g>
  <g id="_2445527841616">
   <path class="fil1 str0" d="M1127 2357c-9,0 -16,-5 -16,-11l0 -42c0,-6 7,-10 16,-10 8,0 15,4 15,10l0 42c0,6 -7,11 -15,11z"/>
   <path class="fil1 str0" d="M1157 2336l-61 0c-8,0 -15,-5 -15,-11 0,-6 7,-10 15,-10l61 0c8,0 15,4 15,10 0,6 -7,11 -15,11z"/>
  </g>
  <g id="_2445527840304">
   <path class="fil1 str0" d="M3561 1838c-4,0 -8,-1 -11,-3 -5,-4 -5,-11 0,-15l43 -29c6,-5 15,-5 21,0 6,4 6,10 0,14l-42 30c-3,2 -7,3 -11,3z"/>
   <path class="fil1 str0" d="M3604 1838c-4,0 -8,-1 -11,-3l-43 -30c-5,-4 -5,-10 0,-14 6,-5 16,-5 22,0l42 29c6,4 6,11 0,15 -3,2 -7,3 -10,3z"/>
  </g>
  <g id="_2445527869072">
   <path class="fil1 str0" d="M3600 871c-31,13 -134,50 -337,55 -194,6 -314,-54 -319,-57 -3,-1 -5,-4 -5,-6 -1,-3 1,-6 4,-8 4,-3 110,-77 332,-68 174,7 328,61 334,64 4,1 7,4 7,7 0,3 -2,6 -6,8 0,1 -4,2 -10,5zm-624 -11l0 0c36,15 141,52 288,48 173,-5 270,-33 309,-48 -48,-15 -170,-49 -302,-54 -165,-7 -262,36 -295,54zm-23 2l0 0 0 0 0 0z"/>
   <path class="fil1 str0" d="M2695 803c-70,30 -154,50 -158,51 -6,1 -11,1 -15,-2 -3,-3 -4,-6 -2,-10 2,-3 55,-88 137,-135 115,-65 205,-80 209,-81 4,0 9,0 12,2 3,2 5,4 5,7 -1,3 -9,74 -151,151 -12,6 -24,12 -37,17zm-135 26l0 0c39,-11 108,-32 155,-58 96,-51 126,-99 135,-122 -38,9 -104,32 -175,72 -54,31 -95,80 -115,108z"/>
   <path class="fil1 str0" d="M1072 1527c-2,1 -4,2 -7,2 -5,0 -10,-2 -12,-5 -3,-3 -57,-81 -48,-151 12,-97 62,-151 64,-153 2,-3 6,-5 10,-5 5,-1 9,0 12,2 3,2 75,50 55,167 -10,61 -66,136 -68,139 -1,2 -3,3 -6,4zm10 -285l0 0c-14,20 -41,65 -49,131 -6,45 18,96 34,123 17,-26 44,-73 51,-112 10,-57 -4,-95 -17,-118 -6,-10 -13,-19 -19,-24z"/>
   <path class="fil1 str0" d="M2979 1100c-2,1 -5,2 -7,2 -7,0 -172,6 -309,-59 -115,-55 -165,-167 -167,-172 -1,-3 0,-7 3,-9 4,-3 9,-4 14,-3 7,0 166,20 276,79 111,58 192,145 195,149 3,3 3,6 0,9 -1,2 -3,3 -5,4zm-448 -219l0 0c19,33 67,106 150,146 98,47 213,55 264,56 -28,-27 -93,-87 -174,-130 -80,-43 -190,-64 -240,-72z"/>
   <path class="fil1 str0" d="M2177 922c-4,2 -10,3 -14,1 -5,-2 -7,-5 -7,-8 1,-5 14,-120 94,-194 107,-99 273,-161 280,-164 4,-1 10,-1 14,0 4,2 6,5 6,8 0,4 -3,100 -135,222 -67,61 -231,132 -238,135 0,0 0,0 0,0zm335 -336l0 0c-53,23 -164,75 -240,145 -56,53 -77,130 -84,165 48,-23 156,-75 204,-120 96,-87 121,-161 128,-193 -3,1 -5,2 -8,3z"/>
   <g>
    <path class="fil1 str0" d="M1395 1218c-5,2 -12,2 -17,0 -5,-4 -5,-10 0,-14 91,-65 153,-140 204,-206 4,-5 13,-7 19,-5 7,2 10,8 6,13 -52,66 -115,143 -209,210 -1,1 -2,2 -3,2z"/>
    <path class="fil1 str0" d="M1656 991c-31,14 -56,19 -58,20 -6,1 -12,0 -15,-4 -3,-2 -57,-61 30,-160 57,-65 193,-141 198,-144 5,-2 10,-3 15,-2 5,2 8,5 8,8 0,5 -3,119 -74,208 -29,36 -70,60 -104,74zm-54 -1l0 0c26,-8 94,-31 133,-81 51,-63 65,-141 69,-178 -42,25 -127,79 -167,124 -63,72 -45,119 -35,135z"/>
   </g>
   <path class="fil1 str0" d="M1108 1488c-5,2 -10,2 -14,1 -7,-2 -9,-8 -6,-13 126,-161 324,-196 403,-204 8,-1 15,3 15,8 0,5 -5,10 -13,11 -75,7 -261,40 -380,193 -1,2 -3,3 -5,4z"/>
   <path class="fil1 str0" d="M1960 1248c-41,18 -163,66 -284,77 -115,10 -191,-34 -194,-36 -4,-3 -5,-7 -3,-11 2,-3 52,-69 218,-79 109,-6 268,25 275,27 5,1 8,3 9,7 0,4 -2,7 -7,9 -1,1 -6,3 -14,6zm-450 31l0 0c22,10 83,34 164,27 104,-9 210,-48 259,-68 -51,-8 -159,-25 -235,-20 -121,7 -172,45 -188,61zm-18 3l0 0 0 0 0 0z"/>
   <path class="fil1 str0" d="M1394 1217c-2,1 -4,1 -6,2 -5,0 -11,-1 -13,-4 -3,-3 -73,-80 -95,-163 -29,-104 67,-205 71,-210 3,-3 7,-4 12,-5 5,0 9,2 12,4 3,3 68,71 78,177 7,67 -50,188 -53,194 -1,2 -3,4 -6,5zm-32 -351l0 0c-24,31 -75,107 -55,182 15,55 54,110 76,137 16,-38 47,-117 42,-164 -7,-75 -44,-131 -63,-155z"/>
   <g>
    <path class="fil1 str0" d="M1531 1474c-1,0 -3,1 -4,1 -1,0 -45,11 -112,41 -12,6 -23,11 -35,17 -34,17 -73,36 -132,56 -113,39 -217,17 -222,16 -4,0 -6,-2 -8,-5 -1,-2 -1,-5 1,-7 3,-4 70,-88 195,-122 169,-46 309,-15 315,-14 6,1 9,5 9,9 -1,3 -3,6 -7,8zm-478 116l0 0c32,4 107,9 184,-18 56,-19 92,-37 127,-54 13,-6 24,-11 37,-17 31,-15 58,-25 79,-32 -52,-6 -149,-10 -257,19 -90,25 -148,79 -170,102z"/>
   </g>
   <g>
    <path class="fil1 str0" d="M2667 1192c-1,1 -1,1 -2,1 -5,1 -105,28 -255,-25 -77,-28 -151,-88 -154,-91 -3,-2 -4,-6 -1,-9 2,-4 7,-6 12,-6 6,-1 139,-6 229,24 126,42 174,91 176,93 2,2 3,5 1,8 -1,2 -3,4 -6,5zm-369 -112l0 0c27,20 77,53 127,71 101,36 177,33 211,28 -21,-16 -69,-48 -154,-76 -58,-20 -140,-23 -184,-23z"/>
    <path class="fil1 str0" d="M2103 1117c-6,3 -14,2 -18,-1 -67,-51 -219,-87 -406,-52 -7,2 -15,-1 -16,-6 -2,-5 3,-11 11,-12 198,-37 360,2 433,57 5,4 4,10 -2,13 -1,1 -2,1 -2,1z"/>
    <path class="fil1 str0" d="M2288 1394c-1,0 -1,0 -2,1 -4,1 -9,1 -13,-1 -4,-1 -114,-43 -167,-120 -69,-102 -25,-165 -23,-168 3,-4 10,-7 16,-6 5,1 116,15 182,118 48,76 15,166 13,170 -1,2 -3,5 -6,6zm-184 -273l0 0c-8,19 -22,71 28,144 37,55 107,91 139,106 7,-28 18,-91 -16,-144 -48,-76 -122,-99 -151,-106z"/>
    <path class="fil1 str0" d="M2274 1079c-5,2 -11,2 -16,0 -51,-26 -140,-45 -239,-50 -81,-4 -206,-2 -338,35 -7,2 -15,0 -18,-5 -2,-5 2,-11 9,-13 138,-38 267,-40 352,-36 103,6 197,26 252,53 6,3 7,9 2,14 -1,1 -3,1 -4,2z"/>
   </g>
  </g>
 </g>
</svg>
